<!--by Dexterr-->
<svg id="SEAGM-ICONS" version="1.1" xmlns="http://www.w3.org/2000/svg" xmlns:xlink="http://www.w3.org/1999/xlink" preserveAspectRatio="none" viewBox="0,0 1000,1000" width="1000" height="1000">
<symbol id="icon-wrp">
	<g id="grid">
		<circle cx="50" cy="50" r="50" fill="#000" opacity=".1"/>
		<rect width="70" height="70" x="15" y="15" fill="#000" opacity=".1"/>
		<rect width="100" height=".1" x="0" y="50" fill="#f00"/>
		<rect width=".1" height="100" x="50" y="0" fill="#f00"/>
	</g>
	<g id="seagm-text" transform="scale(.6)">
		<path d="M45.327,46.003c-4.347-3.552-8.987-7.339-13.918-11.359c-3.525-3.011-5.287-6.118-5.287-9.318v-9.177
			c0-1.034,0.365-1.788,1.096-2.26c0.73-0.468,1.826-0.706,3.29-0.706c1.219,0,2.226,0.263,3.016,0.778
			c0.792,0.519,1.189,1.247,1.189,2.187v18.214h24.369V17.39c0-5.141-2.045-9.207-6.136-12.201C48.151,1.73,40.905,0,31.206,0
			C19.986,0,11.804,1.73,6.661,5.189C2.219,8.184,0,12.811,0,19.075v11.081c0,3.646,2.055,7.572,6.166,11.779
			c0.94,0.936,5.287,4.677,13.039,11.222c4.698,4.036,9.104,7.748,13.217,11.131c1.525,1.594,2.29,3.753,2.29,6.474v11.692
			c0,1.128-0.424,1.978-1.271,2.539c-0.844,0.562-2.116,0.845-3.81,0.845c-1.452,0-2.691-0.307-3.719-0.918
			c-1.032-0.607-1.543-1.434-1.543-2.47v-22.7H0v22.439c0,4.579,1.929,8.415,5.785,11.501C10.928,97.899,19.05,100,30.153,100
			c11.688,0,19.988-1.771,24.896-5.328c4.208-3.086,6.312-7.857,6.312-14.304V67.886c0-4.21-1.705-8.228-5.109-12.064
			C54.606,53.951,50.966,50.68,45.327,46.003z M91.48,51.753h23.141V39.691H91.48V13.183h25.595V0.701H64.656v98.176h52.771V86.395
			H91.48V51.753z M139.421,0.701l-20.207,98.176h26.471l4.675-26.366h12.396l4.67,26.366h26.471L173.691,0.701H139.421z
			 M152.694,59.047l3.775-29.453l3.952,29.453H152.694z M282.08,5.189C277.053,1.73,269.632,0,259.816,0
			c-11.222,0-19.285,1.73-24.195,5.189c-4.207,2.995-6.312,7.622-6.312,13.886v64.096c0,5.707,2.571,10.054,7.716,13.044
			c4.321,2.525,9.816,3.785,16.479,3.785c4.321,0,8.179-0.703,11.572-2.101c1.867-0.748,4.264-2.154,7.186-4.209l3.506,5.187h12.976
			V50.491h-30.156v14.866h5.785v18.518c0,0.891-0.418,1.534-1.253,1.927c-0.835,0.402-1.792,0.594-2.865,0.594
			c-1.194,0-2.183-0.21-2.957-0.63c-0.778-0.42-1.164-1.009-1.164-1.763V15.578c0-0.845,0.356-1.454,1.073-1.831
			c0.719-0.375,1.733-0.564,3.048-0.564c1.431,0,2.475,0.189,3.132,0.566c0.66,0.377,0.986,0.989,0.986,1.833v20.043h24.371V17.39
			C288.744,12.343,286.52,8.275,282.08,5.189z M341.25,22.301c-4.326-2.335-10.811-3.506-19.461-3.506
			c-8.649,0-15.37,1.075-20.162,3.226c-5.96,2.714-8.941,7.013-8.941,12.902v15.849h23.668V35.063c0-1.308,0.399-2.29,1.201-2.945
			c0.799-0.653,1.776-0.981,2.92-0.981c1.372,0,2.403,0.329,3.091,0.981c0.685,0.655,1.029,1.637,1.029,2.945v11.782
			c0,1.683-5.465,4.627-16.393,8.836c-10.93,4.205-16.393,9.492-16.393,15.848v15.988c0,4.21,1.518,7.342,4.559,9.396
			c3.038,2.054,8.179,3.086,15.427,3.086c4.442,0,7.86-0.256,10.257-0.767c2.395-0.517,4.178-1.662,5.349-3.442v3.086h21.563V35.625
			C348.963,29.453,346.391,25.015,341.25,22.301z M324.595,84.012c0,1.214-0.381,2.127-1.139,2.739
			c-0.762,0.606-1.726,0.908-2.895,0.908c-1.401,0-2.483-0.302-3.242-0.908c-0.762-0.612-1.141-1.525-1.141-2.739V69.565
			c0-1.492,0.584-2.712,1.753-3.643c1.169-0.937,3.39-1.735,6.664-2.388V84.012z M437.116,22.23
			c-3.333-2.29-7.515-3.436-12.537-3.436c-3.506,0-7.044,0.648-10.61,1.942c-3.561,1.297-5.871,2.452-6.923,3.468
			c-1.637-1.109-3.566-2.45-5.785-4.022c-1.872-0.924-5.084-1.388-9.643-1.388c-3.157,0-6.109,0.324-8.853,0.97
			c-2.748,0.648-4.823,1.434-6.225,2.358v-2.767h-24.369v79.521h24.369V34.931c0-1.217,0.352-2.107,1.053-2.671
			c0.701-0.562,1.753-0.844,3.155-0.844c2.805,0,4.207,1.219,4.207,3.654v63.807h24.371V35.07c0-1.216,0.352-2.107,1.05-2.668
			c0.703-0.562,1.753-0.845,3.155-0.845c2.808,0,4.209,1.219,4.209,3.653v63.667h24.371V30.295
			C442.111,27.208,440.444,24.522,437.116,22.23z M493.565,22.02c-4.794-2.15-11.46-3.226-19.988-3.226
			c-8.647,0-15.368,1.216-20.162,3.646c-5.497,2.806-8.236,7.202-8.236,13.186v47.545c0,6.082,2.803,10.52,8.41,13.322
			c4.675,2.338,11.341,3.507,19.988,3.507s15.313-1.077,19.988-3.224c5.844-2.712,8.766-7.013,8.766-12.902V67.739h-24.372v15.88
			c0,1.306-0.347,2.301-1.05,2.994c-0.703,0.699-1.753,1.046-3.16,1.046c-1.397,0-2.452-0.352-3.15-1.046
			c-0.703-0.693-1.055-1.693-1.055-2.994V65.22h32.786V34.922C502.331,28.941,499.409,24.638,493.565,22.02z M477.959,53.157h-8.414
			V35.039c0-1.301,0.406-2.276,1.228-2.927c0.812-0.648,1.808-0.975,2.977-0.975c1.406,0,2.457,0.327,3.16,0.975
			c0.703,0.651,1.05,1.625,1.05,2.927V53.157z M557.556,22.091c-3.333-2.196-7.569-3.296-12.71-3.296
			c-3.397,0-6.401,0.301-9.031,0.904c-2.63,0.601-4.647,1.363-6.049,2.287v-2.629h-24.367v79.521h24.367V34.79
			c0-1.216,0.352-2.104,1.055-2.668c0.698-0.562,1.753-0.845,3.15-0.845c2.808,0,4.209,1.226,4.209,3.671v17.367h24.371V30.156
			C562.551,26.978,560.885,24.289,557.556,22.091z M645.909,51.614L633.729,0.701h-34.891v98.176h21.212V43.759l16.075,55.118
			h18.519l13.971-55.118v55.118h24.192V0.701h-35.94L645.909,51.614z M745.457,22.301c-4.328-2.335-10.812-3.506-19.463-3.506
			s-15.372,1.075-20.162,3.226c-5.958,2.714-8.939,7.013-8.939,12.902v15.849h23.664V35.063c0-1.308,0.401-2.29,1.205-2.945
			c0.799-0.653,1.771-0.981,2.918-0.981c1.374,0,2.405,0.329,3.091,0.981c0.685,0.655,1.031,1.637,1.031,2.945v11.782
			c0,1.683-5.47,4.627-16.395,8.836c-10.931,4.205-16.396,9.492-16.396,15.848v15.988c0,4.21,1.521,7.342,4.562,9.396
			C703.609,98.968,708.755,100,716,100c4.442,0,7.862-0.256,10.254-0.767c2.397-0.517,4.183-1.662,5.352-3.442v3.086h21.563V35.625
			C753.169,29.453,750.598,25.015,745.457,22.301z M728.802,84.012c0,1.214-0.384,2.127-1.142,2.739
			c-0.762,0.606-1.726,0.908-2.895,0.908c-1.401,0-2.483-0.302-3.241-0.908c-0.763-0.612-1.142-1.525-1.142-2.739V69.565
			c0-1.492,0.585-2.712,1.754-3.643c1.168-0.937,3.387-1.735,6.665-2.388V84.012z M756.378,98.877h24.366V0.701h-24.366V98.877z
			 M783.845,0.701v98.176h24.371V0.701H783.845z"/>
	</g>
	<g id="icon-close">
		<rect x="-10" y="40" transform="matrix(0.7071 0.7071 -0.7071 0.7071 49.9996 -20.7108)" width="120" height="20"/>
		<rect x="40" y="-10" transform="matrix(0.7071 0.7071 -0.7071 0.7071 49.9986 -20.7108)" width="20" height="120"/>
	</g>
	<g id="icon-close-thin">
		<rect x="-15" y="45" transform="matrix(0.7071 -0.7071 0.7071 0.7071 -20.7109 49.9999)" width="129.999" height="10"/>
		<rect x="45" y="-15" transform="matrix(0.7071 -0.7071 0.7071 0.7071 -20.7109 49.9999)" width="9.999" height="130"/>
	</g>
	<g id="icon-arrow">
		<path d="M50,0L25,25v17h50V25L50,0z M25,75l25,25l25-25V58H25V75z"/>
	</g>
	<g id="icon-check">
		<path d="M50,0C22.385,0,0,22.385,0,50c0,27.613,22.385,50,50,50
			c27.613,0,50-22.387,50-50C100,22.385,77.613,0,50,0z M42.929,79.355l-9.899-9.899l0,0L14.645,51.07l9.899-9.899l18.385,18.385
			l32.526-32.527l9.901,9.9L42.929,79.355z"/>
	</g>
	<g id="icon-deny">
		<path d="M50,0C22.385,0,0,22.386,0,50c0,27.613,22.385,50,50,50
			c27.614,0,50-22.387,50-50C100,22.386,77.614,0,50,0z M80.404,70.507l-9.898,9.898L50,59.899L29.494,80.405l-9.9-9.898L40.1,50
			L19.594,29.494l9.9-9.9L50,40.101l20.506-20.506l9.898,9.9L59.898,50L80.404,70.507z"/>
	</g>
	<g id="icon-search">
		<path d="M98.536,87.217L80.146,68.825c-1.712-1.712-4.354-1.923-6.297-0.635
			l-9.706-9.706c4.926-6.161,7.878-13.968,7.878-22.47C72.021,16.125,55.898,0,36.01,0C16.123,0,0,16.125,0,36.015
			c0,19.891,16.123,36.015,36.01,36.015c8.504,0,16.314-2.955,22.474-7.885l9.705,9.707c-1.284,1.942-1.07,4.581,0.64,6.29
			l18.389,18.393c1.954,1.954,5.121,1.954,7.072,0l4.246-4.244C100.488,92.336,100.488,89.169,98.536,87.217z M36.008,63.023
			C21.093,63.023,9,50.931,9,36.013C9,21.096,21.093,9.001,36.008,9.001c14.917,0,27.007,12.094,27.007,27.011
			C63.016,50.931,50.925,63.023,36.008,63.023z"/>
	</g>
	<g id="icon-user">
		<path d="M45.789,1.511c-3.421,0-2.894,1.529-4.736,1.793
			c-1.841,0.263,0.373-0.741-5.153,0.312c-5.525,1.054-7.477,8.156-7.74,10.789c-0.264,2.631-0.328,10.028-0.154,13.977
			c0.527,2.367-1.315,2.367-1.315,2.367c-3.311-0.213-1.823,10.105-1.823,10.105c0.478,2.543-0.17,3.809,4.732,5.779
			c2.336,6.652,8.437,10.169,8.437,10.169s0.031,4.105,0.123,7.145c-0.499-0.249,1.703,7.767-13.526,10.014
			C9.403,76.205,6.487,81.14,3.616,83.885c-2.871,2.748-2.76,16.062-2.76,16.062L99.146,100c0,0-0.731-13.367-3.603-16.115
			c-2.871-2.745-5.999-7.68-21.229-9.926c-14.807-2.141-12.371-10.044-12.476-10.516c0.027-1.198,0.188-6.274,0.188-6.274
			s5.171-4.082,7.506-10.736c3.674-2.32,5.074-2.643,5.683-5.317c0,0,1.08-10.424-2.39-10.371c0,0-1.645,0.528-1.118-1.839
			c0.527-2.369,0.352-9.765,0.088-12.396s0.133-10.153-5.393-11.205c-3.771-0.703-4.263-0.008-6.105-0.272
			C58.454,4.771,56.263,0,52.842,0L45.789,1.511z"/>
	</g>
	<g id="icon-reg">
		<path d="M84.808,74.883V59.699H74.91v15.184H60v9.974h14.91V100h9.897V84.856H100v-9.974
			H84.808z
			M56.109,70.877h9.271c-4.503-3.1-3.324-7.148-3.399-7.482c0.026-1.196,0.184-6.269,0.184-6.269s5.129-4.08,7.444-10.725
			c3.643-2.321,5.031-2.643,5.634-5.314c0,0,1.074-10.417-2.364-10.363c0,0-1.632,0.526-1.11-1.839
			c0.519-2.368,0.346-9.757,0.085-12.384c-0.263-2.631,0.132-10.147-5.349-11.2c-3.737-0.702-4.228-0.007-6.055-0.269
			C58.622,4.768,56.449,0,53.058,0l-6.994,1.509c-3.393,0-2.87,1.529-4.698,1.792c-1.827,0.263,0.368-0.74-5.111,0.311
			c-5.479,1.054-7.415,8.149-7.677,10.782c-0.261,2.629-0.326,10.019-0.151,13.964c0.521,2.366-1.306,2.366-1.306,2.366
			c-3.283-0.212-1.806,10.098-1.806,10.098c0.47,2.541-0.17,3.808,4.69,5.774c2.317,6.65,8.366,10.165,8.366,10.165
			s0.033,4.102,0.124,7.138c-0.496-0.246,1.689,7.76-13.415,10.008C9.979,76.146,7.083,81.08,4.237,83.822
			C1.389,86.57,1.5,99.872,1.5,99.872l69.427,0.037v-11H56.109V70.877z"/>
	</g>
	<g id="icon-cart">
		<path d="M92.306,17.004l-68.09,0.102l-0.539-7.063c0,0-5.569-10.042-13.291-10.042
			C10.386,0,0,3.072,0,10.108l9.82-0.01c0,0,9.579,57.212,9.579,58.845c0,4.418,4.799,9.988,6.869,9.988h9.489
			C32.962,79.562,31,81.965,31,84.992c0,3.535,2.673,6.412,6.228,6.412c3.536,0,6.414-2.877,6.414-6.412
			c0-3.027-2.111-5.43-4.936-6.061h34.485c-2.79,0.631-4.758,3.033-4.758,6.061c0,3.535,2.682,6.412,6.228,6.412
			c3.536,0,6.414-2.877,6.414-6.412c0-3.027-2.111-5.43-4.937-6.061h7.294c5.337,0,5.337-12.17,0-12.17H30.267l-1.503-6.672
			l59.588,0.314c0,0,7.713-0.139,7.713-7.389L100,24.234C100,24.234,99.1,17.004,92.306,17.004z"/>
	</g>
	<g id="icon-notification">
		<path d="M42.495,100c6.049,0,11.093-4.297,12.25-10.004H30.243
			C31.401,95.703,36.446,100,42.495,100z M74.994,67.5v-30h-0.105c-1.087-14.265-11.38-25.954-24.951-29.137
			c0.032-0.283,0.053-0.57,0.053-0.863c0-4.139-3.357-7.5-7.496-7.5s-7.496,3.362-7.496,7.5c0,0.292,0.021,0.58,0.053,0.863
			C21.48,11.546,11.187,23.235,10.1,37.5H9.994v30c0,0-4.997,10.003-9.994,12.502c0,3.586,0,4.997,0,4.997h9.994h20.249h24.502
			h20.249h9.996c0,0,0-1.563,0-4.997C79.992,77.503,74.994,67.5,74.994,67.5z"/>
	</g>
	<g id="icon-settings">
		<path d="M96.155,42.301h-4.609c-2.116,0-4.361-1.649-4.987-3.671l-2.652-6.442c-0.993-1.863-0.586-4.614,0.904-6.109l3.278-3.273
			c1.5-1.5,1.5-3.944,0-5.444l-5.454-5.439c-1.49-1.495-3.944-1.495-5.435,0l-3.278,3.273c-1.49,1.495-4.252,1.902-6.119,0.899
			l-6.428-2.643c-2.017-0.626-3.676-2.871-3.676-4.987V3.85c0-2.116-1.738-3.85-3.854-3.85h-7.689c-2.116,0-3.845,1.733-3.845,3.85
			v4.615c0,2.116-1.649,4.361-3.676,4.987l-6.438,2.643c-1.867,1.008-4.609,0.606-6.109-0.899l-3.278-3.273
			c-1.5-1.495-3.934-1.495-5.434,0l-5.434,5.439c-1.51,1.495-1.51,3.944,0,5.439l3.258,3.279c1.5,1.495,1.917,4.247,0.904,6.109
			l-2.643,6.442c-0.636,2.027-2.871,3.681-4.987,3.681l-4.629-0.01C1.729,42.301,0,44.034,0,46.15v7.689
			c0,2.116,1.729,3.85,3.845,3.85h4.629c2.116,0.005,4.351,1.664,4.977,3.676l2.652,6.447c1.003,1.857,0.596,4.619-0.904,6.109
			L11.931,77.2c-1.5,1.49-1.5,3.935,0,5.444l5.444,5.435c1.5,1.5,3.934,1.5,5.434,0l3.278-3.269c1.49-1.49,4.242-1.908,6.1-0.895
			l6.447,2.643c2.027,0.636,3.676,2.881,3.676,4.987v4.609c0,2.106,1.729,3.845,3.845,3.845h7.689c2.116,0,3.854-1.738,3.854-3.845
			v-4.609c0-2.106,1.659-4.352,3.676-4.987l6.447-2.643c1.868-1.014,4.609-0.596,6.109,0.895l3.269,3.269c1.49,1.5,3.944,1.5,5.435,0
			l5.454-5.435c1.5-1.51,1.5-3.954,0-5.444l-3.278-3.278c-1.49-1.49-1.897-4.252-0.904-6.109l2.652-6.447
			c0.626-2.012,2.881-3.671,4.987-3.671h4.609c2.126,0,3.845-1.729,3.845-3.845V46.15C100,44.034,98.281,42.301,96.155,42.301z
			 M69.243,49.99c0,10.62-8.604,19.232-19.223,19.232c-10.63,0-19.243-8.612-19.243-19.232S39.39,30.762,50.02,30.762
			C60.64,30.762,69.243,39.37,69.243,49.99z"/>
	</g>
	<g id="icon-region">
		<path d="M50,0C22.387,0,0,22.387,0,50s22.387,50,50,50s50-22.387,50-50S79.538,0,50,0z
			 M68.298,19.674l1.781-4.157c0,0,0.278-2.059,0.529-3.944c0.87-0.409,4.374,1.425,7.343,4.538
			c-2.005,7.423-6.682,6.534-6.682,6.534S67.853,22.569,68.298,19.674z M59.243,20.044c0.445-0.891,1.559-1.336,2.672-1.782
			c1.114-0.445,0,2.004-0.223,3.341s-0.445,2.004,1.114,3.563c1.559,1.559-2.896,0.445-4.01-0.445
			C57.684,23.831,59.243,20.044,59.243,20.044z M38.307,63.475c-0.223,1.113-1.559,3.786-2.45,5.567
			c-0.891,1.782-1.336,2.45-2.45,3.341c-1.114,0.892-1.782,2.45-1.782,2.45l-0.223,3.786c0,0,1.113,2.45,1.782,3.563
			c0.668,1.113-1.336,6.682-1.336,6.682c-1.93-0.369-3.266-0.891-3.934-2.673c-0.668-1.781-1.634-1.336-1.411-3.341
			c0.223-2.004-3.118-4.454-3.786-5.567c-0.668-1.114-1.559-2.673-1.559-3.786c0-1.114-2.45-2.673-2.45-2.673
			s-4.454-2.005-5.122-2.896c-0.668-0.891-1.336-4.677-1.559-6.236c-0.223-1.559,0.668-5.567,0.668-5.567s1.782-1.337,0.668-2.45
			c-1.113-1.113-1.336-4.009-1.336-4.009l-2.004-2.227c0,0-1.559-2.228-1.782-3.341c-0.223-1.114,0-1.782,0.223-2.896
			s-0.446-3.118-0.446-4.231C16.333,16.568,30.29,11.804,30.29,11.804l1.114,4.677c0,0-2.45,0.668-3.787,0.223
			c-1.336-0.445-2.004-0.445-2.004-0.445l-1.782,2.45c0,0-0.668,1.559-0.891,2.45c-0.223,0.891,0.445,2.227,0.445,2.227
			s3.118,0.223,3.118-0.668c0-0.891-0.445-1.336-0.445-1.336l-0.446-1.559c0,0,2.004-1.114,7.35-0.668
			c5.345,0.445,3.341,4.231,5.568,5.123c2.227,0.891-1.782,4.009-2.673,5.791c-0.891,1.782-2.227-2.227-2.227-2.227
			s1.336-1.559-0.891-2.005c-2.227-0.445-2.672,2.45-1.559,2.228c1.114-0.223,1.336,1.336,1.114,2.45s-0.223,2.45-1.336,4.9
			c-1.113,2.45-5.345,2.45-5.345,2.45s0.668,1.114,1.336,2.45c0.668,1.336-0.223,4.454-0.223,5.345c0,0.891-2.673-1.559-3.118-3.787
			c-0.445-2.227-1.782-1.559-2.672-1.336c-0.891,0.223-3.786,0.891-4.232-0.223c-0.445-1.114-4.454,2.227-5.568,2.895
			c-1.113,0.668-0.668,2.45,1.114,1.559c1.782-0.891,3.341-0.223,2.895,1.559c-0.445,1.782-2.227,0.668-2.004,1.782
			s2.004,2.227,2.45,3.787c0.445,1.559,4.677,0.223,6.013-0.446c1.336-0.668,5.123-1.336,5.568,0.446
			c0.445,1.781,4.677,2.449,6.236,2.895s4.677,0.669,6.458,2.45C41.648,59.021,38.53,62.36,38.307,63.475z M48.33,11.358
			c-0.223,2.228-3.786,5.123-3.341,6.014c0.445,0.891,0,7.795-3.118,4.454c-3.118-3.341-6.236-7.572-6.013-9.799
			c0.045-0.449,0.098-1.15,0.15-1.924c4.726-4.389,15.397-3.491,15.962-2.456C50.632,9.875,48.552,9.133,48.33,11.358z
			 M53.452,24.499c-0.668-1.114,1.559-1.782,1.559-1.782c3.118,0.668,1.782,2.45,1.56,3.341
			C56.348,26.949,54.12,25.612,53.452,24.499z M88.642,51.077c0,0,1.712,2.528,4.155,2.375
			c-1.602,18.625-17.149,30.589-17.149,30.589c-2.373-2.377-1.184-4.454-1.184-4.454l0.668-3.563l0.369-6.014
			c0,0,0-6.236-5.937-3.268c-6.39,1.632-3.717,1.632-10.176,2.077S55.38,57.016,55.38,57.016c-0.369-5.346,0.599-4.009,0.599-8.167
			c0-4.155,13.655-1.78,13.655-1.78c8.909,5.938,10.099-1.336,10.099-1.336l6.536-2.375l0.591-2.97l-3.563-4.157l-5.345-2.377
			c0,0-2.45,1.559,0,5.345c0,0-0.814,4.307-2.819,3.193l-5.498-6.756c0,0-1.852,3.193-4.823,4.975s-8.018-0.075-8.018-0.075
			s-1.636-5.048,1.482-6.607l4.607,0.371c0,0-0.668-3.043-0.076-5.418c0.591-2.377,1.635-0.298,4.009-2.08
			c2.373-1.782,4.009,3.489,7.572,2.896c3.563-0.595,1.781-1.188,4.155-2.375c2.38-1.188,4.162,2.375,4.162,2.375l4.746,0.593
			c0,0,0-2.245-0.42-4.004c-0.793-1.366-1.491-2.14-1.953-1.934c1.041-0.521,1.625,0.558,1.953,1.934
			c3.007,5.177,7.411,18.985,5.79,21.442c-0.985-0.442-1.807-0.809-1.807-0.809h-5.937L88.642,51.077z"/>
	</g>
	<g id="icon-currency">
		<path d="M74.999,50c-13.808,0-25.001,11.193-25.001,25s11.194,25,25.001,25C88.806,100,100,88.807,100,75S88.806,50,74.999,50z
			 M83.624,86.172c-1.465,1.361-3.5,2.295-6.104,2.803v4.492h-5.592v-4.141c-2.832-0.156-5.42-0.834-7.765-2.031l2.345-4.551
			c2.506,1.406,4.973,2.109,7.398,2.109c3.727,0,5.59-1.029,5.59-3.086c0-1.029-0.477-1.996-1.428-2.9s-2.76-1.891-5.42-2.959
			c-2.662-1.068-4.473-1.953-5.432-2.656c-0.961-0.703-1.698-1.543-2.21-2.52c-0.514-0.977-0.77-2.064-0.77-3.262
			c0-1.771,0.695-3.334,2.087-4.688c1.393-1.354,3.26-2.26,5.604-2.715v-3.535h5.592l-0.025,3.34
			c2.994,0.234,5.225,0.82,6.689,1.758l-1.928,4.375c-2.23-1.275-4.582-1.914-7.057-1.914c-1.465,0-2.6,0.316-3.404,0.947
			c-0.807,0.631-1.209,1.43-1.209,2.393c0,1.641,2.27,3.346,6.811,5.117c2.393,0.938,4.117,1.801,5.176,2.588
			s1.863,1.705,2.418,2.754c0.553,1.049,0.83,2.217,0.83,3.506C85.821,83.219,85.089,84.811,83.624,86.172z M44.997,75
			c0-9.27,4.207-17.556,10.813-23.059c0.158-0.675,0.307-1.458,0.307-3.088c0-2.605,5.376-2.645,9.392-2.312
			C68.492,45.547,71.681,45,74.999,45c1.892,0,3.738,0.183,5.532,0.518l5.952-2.159l0.596-2.971l-3.572-4.157l-5.357-2.376
			c0,0-2.457,1.56,0,5.346c0,0-0.818,4.307-2.828,3.193l-5.508-6.756c0,0-1.861,3.191-4.839,4.973
			c-2.977,1.783-8.037-0.073-8.037-0.073s-1.639-5.049,1.488-6.608l4.613-0.074c0,0-0.967-2.599-0.371-4.975
			c0.594-2.375,1.936-0.296,4.317-2.079c2.381-1.781,4.02,3.49,7.59,2.896c3.574-0.595,1.787-1.188,4.17-2.376
			c2.381-1.188,4.166,2.376,4.166,2.376l4.764,0.594c0,0-3.053-8.119-4.132-9.222c-0.123-0.023-0.238-0.026-0.333,0.016
			c0.058-0.191,0.174-0.178,0.333-0.016c2.771,0.516,12.335,16.863,9.514,26.661c-0.986-0.44-1.81-0.809-1.81-0.809h-5.673
			c5.615,2.116,10.425,5.869,13.855,10.675c0.374-2.476,0.568-5.012,0.568-7.593C99.998,22.388,79.739,0,50.126,0
			C22.443,0,0,22.388,0,50.005c0,27.616,22.443,50.004,50.126,50.004c2.551,0,5.054-0.193,7.499-0.56
			C49.985,94.012,44.997,85.091,44.997,75z M68.026,20.121l1.787-4.604c0,0,0.723-2.651,0.975-4.538
			c0.871-0.409,4.385,2.018,7.361,5.131c-2.01,7.426-6.699,6.98-6.699,6.98S67.581,23.016,68.026,20.121z M59.393,20.046
			c0.447-0.891,1.562-1.336,2.68-1.781c1.115-0.446,0,2.004-0.225,3.34c-0.223,1.336-0.445,2.005,1.117,3.564
			c1.562,1.56-2.902,0.446-4.02-0.446C57.83,23.833,59.393,20.046,59.393,20.046z M55.15,22.719
			c3.125,0.668,1.936,2.896,1.711,3.787c-0.223,0.892-2.604-0.89-3.273-2.005C52.918,23.388,55.15,22.719,55.15,22.719z
			 M39.17,63.48c-0.224,1.113-2.328,3.785-3.222,5.568c-0.893,1.781-1.34,2.449-2.456,3.34c-1.117,0.893-1.787,2.451-1.787,2.451
			l0.287,3.785c0,0,1.117,2.451,1.787,3.564s-1.34,7.129-1.34,7.129c-1.935-0.371-3.784-0.891-4.455-2.674
			c-0.669-1.781-1.637-1.781-1.414-3.787c0.223-2.004-3.126-4.455-3.796-5.568c-0.67-1.113-1.563-2.672-1.563-3.785
			c0-1.115-2.457-2.674-2.457-2.674s-4.465-2.004-5.135-2.895c-0.67-0.893-1.339-4.678-1.563-6.236
			c-0.223-1.561,0.67-5.57,0.67-5.57s1.786-1.336,0.67-2.449c-1.116-1.115-1.34-4.009-1.34-4.009l-2.009-2.227
			c0,0-1.563-2.229-1.786-3.342s0-1.782,0.223-2.896c0.223-1.113-0.446-3.118-0.446-4.23c8.335-20.406,22.328-25.171,22.328-25.171
			l1.116,4.679c0,0-2.456,0.668-3.796,0.223c-1.34-0.446-2.01-0.446-2.01-0.446l-1.786,2.45c0,0-0.67,1.56-0.893,2.45
			c-0.223,0.892,0.446,2.229,0.446,2.229s3.126,0.222,3.126-0.668c0-0.89-0.447-1.336-0.447-1.336l-0.446-1.559
			c0,0,2.01-1.115,7.369-0.669c5.358,0.445,3.35,4.232,5.582,5.123c2.232,0.892-1.786,4.01-2.68,5.792
			c-0.893,1.781-2.232-2.228-2.232-2.228s1.34-1.56-0.893-2.005c-2.234-0.445-2.68,2.45-1.564,2.227
			c1.116-0.222,1.34,1.337,1.116,2.45c-0.223,1.114-0.223,2.451-1.34,4.901c-1.116,2.45-5.358,2.45-5.358,2.45
			s0.67,1.113,1.339,2.45c0.67,1.336-0.223,4.454-0.223,5.345c0,0.892-2.68-1.559-3.126-3.785c-0.447-2.229-1.786-1.412-2.679-1.188
			c-0.893,0.223-3.796,0.891-4.243-0.224c-0.446-1.113-4.465,2.079-5.582,2.747c-1.116,0.669-0.669,2.45,1.117,1.56
			s3.349-0.223,2.902,1.559c-0.447,1.782-2.233,0.669-2.01,1.782c0.224,1.113,2.01,2.229,2.456,3.788
			c0.447,1.559,4.689-0.668,6.029-1.336c1.339-0.669,5.135-1.338,5.582,0.446c0.447,1.781,5.455,3.34,7.018,3.785
			c1.562,0.445,4.688,0.668,6.476,2.449C42.519,59.025,39.394,62.367,39.17,63.48z M41.977,22.274
			c-3.126-3.341-6.252-8.019-6.028-10.247c0.045-0.449,0.098-1.15,0.149-1.925c4.739-4.388,15.438-3.49,16.002-2.455
			c-1.34,2.228-3.423,1.485-3.647,3.712c-0.224,2.228-4.094,5.569-3.648,6.459C45.252,18.709,45.103,25.616,41.977,22.274z"/>
	</g>
	<g id="icon-currency2">
		<path d="M35.385,45.377c0.583-0.844,1.196-1.664,1.841-2.458h-1.841V45.377z M32.502,29.291L43.968,9.963h6.552L37.875,29.881
			h10.156v3.734H35.385v5.569h5.311c6.369-6.031,14.766-9.934,24.066-10.579C62.836,12.494,49.131,0,32.501,0
			C14.551,0,0,14.551,0,32.5c0,16.63,12.495,30.334,28.606,32.26c0.235-3.377,0.898-6.634,1.938-9.72H29.62V42.919H17.04v-3.735
			h12.58v-5.569H17.04v-3.734h10.09L14.484,9.963h6.552L32.502,29.291z M67.502,35C49.551,35,35,49.551,35,67.5
			S49.553,100,67.502,100c17.947,0,32.5-14.551,32.5-32.5S85.449,35,67.502,35z M78.713,82.023c-1.904,1.77-4.549,2.983-7.936,3.645
			v5.839h-7.27v-5.383c-3.682-0.203-7.045-1.084-10.094-2.641l3.049-5.916c3.258,1.828,6.465,2.741,9.617,2.741
			c4.846,0,7.268-1.337,7.268-4.012c0-1.338-0.621-2.595-1.855-3.77c-1.238-1.176-3.59-2.458-7.047-3.847
			c-3.461-1.389-5.816-2.539-7.062-3.453c-1.248-0.914-2.207-2.006-2.873-3.276c-0.668-1.27-1-2.683-1-4.24
			c0-2.302,0.902-4.334,2.713-6.094c1.811-1.76,4.238-2.938,7.285-3.53v-4.595h7.27l-0.033,4.342
			c3.893,0.304,6.793,1.066,8.695,2.285l-2.506,5.688c-2.898-1.657-5.957-2.488-9.174-2.488c-1.904,0-3.381,0.411-4.426,1.231
			c-1.049,0.82-1.57,1.858-1.57,3.111c0,2.133,2.951,4.349,8.854,6.651c3.111,1.219,5.352,2.342,6.729,3.364
			c1.377,1.023,2.422,2.217,3.145,3.58c0.719,1.364,1.078,2.882,1.078,4.559C81.57,78.185,80.617,80.255,78.713,82.023z"/>
	</g>
	<g id="icon-password">
		<path d="M71.4,41.668V29.165C71.4,29.165,71.396,0,42,0C12.604,0,12.598,29.165,12.598,29.165v12.503H0V100h84
			V41.668H71.4z M46.2,73.846v13.655h-8.4V73.846c-2.5-1.448-4.2-4.101-4.2-7.177c0-4.606,3.762-8.333,8.4-8.333
			c4.639,0,8.4,3.727,8.4,8.333C50.4,69.745,48.698,72.397,46.2,73.846z M58.797,41.668H25.196V29.169
			c0.047-3.487-0.004-16.666,16.8-16.666c16.805,0,16.751,13.231,16.801,16.666V41.668z"/>
	</g>
	<g id="icon-nav">
		<rect x="0" y="10" width="100" height="18"/>
		<rect x="0" y="41" width="100" height="18"/>
		<rect x="0" y="72" width="100" height="18"/>
	</g>
	<g id="icon-order">
		<path d="M34,84h12V70H34V84z M16,84h12v-6H16V84z M49,15H16v8h33V15z M16,39h48v-8H16V39    z M16,55h48v-8H16V55z M61.863,0H0v100h80V17.822L61.863,0z M72,92H8V8h49v15h15V92z M52,84h12V63H52V84z"/>
	</g>
	<g id="icon-account">
			<path d="M38.058,74.563H12.427c-3.432,0-6.215,2.782-6.215,6.213c0,3.432,2.784,6.214,6.215,6.214h25.631     c3.432,0,6.214-2.782,6.214-6.214C44.272,77.346,41.49,74.563,38.058,74.563z M31.845,68.35c3.431,0,6.213-2.782,6.213-6.214     s-2.782-6.214-6.213-6.214H6.212C2.782,55.922,0,58.704,0,62.136s2.782,6.214,6.212,6.214H31.845z M6.213,49.708h25.631     c3.431,0,6.213-2.782,6.213-6.213s-2.782-6.213-6.213-6.213H6.213C2.782,37.282,0,40.063,0,43.495S2.782,49.708,6.213,49.708z      M38.058,18.641H12.427c-3.432,0-6.214,2.781-6.214,6.212c0,3.433,2.782,6.215,6.214,6.215h25.631     c3.432,0,6.214-2.782,6.214-6.215C44.272,21.421,41.49,18.641,38.058,18.641z M50.485,0H24.854c-3.432,0-6.214,2.782-6.214,6.213     c0,3.432,2.782,6.214,6.214,6.214h25.631c3.432,0,6.214-2.782,6.214-6.214C56.699,2.782,53.917,0,50.485,0z"/>
			<path d="M72.5,32C57.311,32,45,44.313,45,59.5C45,74.688,57.311,87,72.5,87C87.69,87,100,74.688,100,59.5     C100,44.313,87.69,32,72.5,32z M80.34,75.303c-1.593,1.569-3.783,2.502-6.567,2.797v4.453H70.13v-4.432     c-2.66-0.278-4.841-1.249-6.542-2.911c-1.703-1.662-2.522-4.104-2.46-7.321l0.046-0.116h4.41c0,2.382,0.604,4.08,1.81,5.095     c1.206,1.012,2.675,1.518,4.408,1.518c1.995,0,3.554-0.475,4.677-1.426c1.119-0.951,1.681-2.271,1.681-3.955     c0-1.392-0.49-2.579-1.471-3.562c-0.982-0.983-2.613-1.861-4.887-2.633c-3.124-0.945-5.484-2.205-7.077-3.783     c-1.595-1.577-2.389-3.683-2.389-6.312c0-2.552,0.732-4.633,2.204-6.241c1.468-1.61,3.487-2.576,6.055-2.9v-5.127h3.667v5.151     c2.584,0.339,4.59,1.4,6.021,3.18c1.43,1.778,2.146,4.161,2.146,7.147h-4.549c0-1.966-0.488-3.558-1.462-4.783     c-0.972-1.223-2.318-1.831-4.038-1.831c-1.824,0-3.193,0.475-4.106,1.427c-0.912,0.951-1.369,2.255-1.369,3.908     c0,1.501,0.471,2.717,1.417,3.642c0.942,0.929,2.636,1.812,5.079,2.647c3.155,1.021,5.5,2.292,7.032,3.817     c1.53,1.523,2.296,3.591,2.296,6.207C82.729,71.616,81.934,73.733,80.34,75.303z"/>
	</g>
	<g id="icon-logout">
		<path d="M14.001,14h36.003V0H0v100h50.004V86H14.001V14z M99.999,50l-9.912-9.912v0L63.918,13.922l-9.912,9.911l19.097,19.096
			H39.995v14.142h33.106L54.028,76.144l9.912,9.912l26.146-26.145l0.001,0.001L99.999,50L99.999,50z"/>
	</g>
	<g id="icon-foward">
		<rect x="34.645" y="62.929" transform="matrix(-0.7071 0.7071 -0.7071 -0.7071 168.9949 70)" width="70.711" height="14.142"/>
		<rect x="62.929" y="-5.355" transform="matrix(-0.7071 0.7071 -0.7071 -0.7071 140.7114 1.7174)" width="14.142" height="70.71"/>
		<rect y="42.93" width="80" height="14.142"/>
	</g>
	<g id="icon-back">
		<rect x="-5.355" y="22.929" transform="matrix(0.7071 -0.7071 0.7071 0.7071 -12.4264 30)" width="70.711" height="14.142"/>
		<rect x="22.929" y="34.645" transform="matrix(0.7071 -0.7071 0.7071 0.7071 -40.71 41.714)" width="14.142" height="70.71"/>
		<rect x="20" y="42.928" width="80" height="14.142"/>
	</g>
	<g id="icon-link">
		<path d="M32.504,71.93c-5.695,5.08-9.47,4.77-13.318,0.926l-4.406-4.718
			c-3.849-3.848-3.849-10.086,0-13.934l18.86-18.858c3.847-3.849,10.086-3.849,13.933,0l3.483,3.483
			c2.973,2.972,3.648,7.371,2.029,10.992l8.421,6.421c5.772-5.767,5.772-15.125,0-20.896l-10.45-10.45
			c-5.771-5.772-15.128-5.772-20.899,0L4.329,50.723c-5.771,5.77-5.771,15.127,0,20.899L14.78,82.07
			c5.771,5.772,15.127,5.772,20.9,0l9.969-10.276l-7.12-6.814L32.504,71.93z M96.339,28.379L85.891,17.928
			c-5.77-5.771-15.127-5.771-20.899,0c0,0,0.41-0.104-5.663,5.969l6.944,6.631l3.08-3.393c3.851-3.847,10.089-3.847,13.937,0
			l3.485,3.483c3.844,3.847,3.844,10.086,0,13.935L69.761,62.181c-3.851,3.847-10.09,3.847-13.934,0l-4.64-4.103
			c-5.572-5.223-2.413-6.188-1.901-9.226l-7.661-7.56c-5.771,5.772-5.771,15.129,0,20.898l10.452,10.451
			c5.77,5.772,15.127,5.772,20.899,0l23.362-23.362C104.577,39.813,96.339,28.379,96.339,28.379z"/>
	</g>
	<g id="icon-mail">
		<path d="M63.623,35.137l36.371,31.53H100V0L63.623,35.137z M49.918,48.374l-8.762-8.491
			L0.007,66.667h99.985L58.655,39.935L49.918,48.374z M0.006,66.667l36.253-31.53L0,0v66.667H0.006z M49.837,37.398L100,0H0
			L49.837,37.398z"/>
	</g>
	<g id="icon-mail2">
		<path d="M3.3,23.809c2.712,1.458,40.268,21.631,41.665,22.382c1.399,0.751,3.21,1.114,5.035,1.114
		c1.825,0,3.635-0.362,5.035-1.114c1.397-0.751,38.952-20.923,41.664-22.382c2.715-1.457,5.283-6.031,0.297-6.031H3.003
		C-1.979,17.778,0.585,22.353,3.3,23.809z M97.85,34.92c-3.082,1.607-40.929,21.399-42.814,22.382
		c-1.889,0.985-3.21,1.113-5.035,1.113c-1.825,0-3.146-0.128-5.035-1.113C43.079,56.319,5.234,36.528,2.151,34.92
		C-0.019,33.79,0,35.116,0,36.14c0,1.025,0,40.755,0,40.755c0,2.328,3.102,5.328,5.51,5.328h88.98c2.407,0,5.51-3,5.51-5.328
		c0,0,0-39.73,0-40.755C100,35.116,100.021,33.79,97.85,34.92z"/>
	</g>
	<g id="icon-clock">
		<path d="M50.003,0C22.388,0,0,22.386,0,50c0,27.614,22.388,50,50.003,50
			S100,77.614,100,50C100,22.386,77.619,0,50.003,0z M50,90.039C27.889,90.039,9.962,72.113,9.962,50S27.889,10.069,50,10.069
			S90.035,27.887,90.035,50S72.111,90.039,50,90.039z M74.071,44.812L55.11,44.705V18.959c0-2.854-2.312-5.17-5.167-5.17
			c-2.858,0-5.171,2.316-5.171,5.17v31.024c0,2.854,2.313,5.171,5.171,5.171h24.128c2.854,0,5.171-2.316,5.171-5.171
			C79.242,47.128,76.926,44.812,74.071,44.812z"/>
	</g>
	<g id="icon-clock2">
		<path d="M50.003,0C22.388,0,0,22.386,0,50c0,27.614,22.388,50,50.003,50
			S100,77.614,100,50C100,22.386,77.619,0,50.003,0z M74.074,55.154H49.943c-2.856,0-5.171-2.316-5.171-5.171V18.959
			c0-2.856,2.314-5.17,5.171-5.17c2.855,0,5.171,2.314,5.171,5.17v25.746l18.96,0.108c2.854,0,5.171,2.316,5.171,5.171
			C79.245,52.838,76.929,55.154,74.074,55.154z"/>
	</g>
	<g id="icon-tips">
		<path d="M50,0C22.388,0,0,22.388,0,50s22.388,50,50,50c27.616,0,50-22.388,50-50S77.616,0,50,0z M61.796,71.16
			c-3.418,5.025-5.992,8.339-7.869,10.143c-3.194,3.076-6.689,4.635-10.396,4.635c-2.225,0-4.241-0.688-5.992-2.051
			c-1.884-1.458-2.832-3.645-2.832-6.512c0-0.966,0.206-2.371,0.635-4.293c0.244-1.057,0.593-2.445,1.074-4.168l6.445-23.692
			c0.031-0.16,0.052-0.314,0.052-0.45c0-0.234-0.021-0.987-0.307-1.095c-0.391-0.15-1.472-0.422-4.251-0.544
			c-0.833-0.039-1.493-0.726-1.493-1.562v-2.703c0-0.816,0.635-1.496,1.451-1.556c1.904-0.136,4.674-0.404,8.297-0.819
			c3.606-0.408,6.18-0.768,7.659-1.061l4.367-0.844c0.53-0.098,1.074,0.073,1.443,0.471c0.37,0.394,0.503,0.952,0.363,1.472
			L52.49,65.691c-0.663,2.473-1.109,4.188-1.339,5.151c-0.775,3.163-0.858,4.153-0.858,4.43c0.112,0.191,0.928,0.143,2.728-1.926
			c1.465-1.685,2.776-3.474,3.899-5.329c0.216-0.359,0.571-0.617,0.983-0.708c0.404-0.091,0.844-0.018,1.199,0.202l2.254,1.454
			c0.355,0.228,0.6,0.59,0.684,1.005C62.123,70.382,62.04,70.808,61.796,71.16z M62.067,26.092c-1.625,1.649-3.634,2.49-5.964,2.49
			c-2.315,0-4.325-0.833-5.978-2.483c-1.646-1.643-2.487-3.655-2.487-5.981c0-2.33,0.841-4.339,2.501-5.964
			c3.299-3.258,8.663-3.247,11.921,0.007c1.632,1.629,2.455,3.631,2.455,5.957C64.516,22.437,63.692,24.445,62.067,26.092z"/>
	</g>
	<g id="icon-check-only">
		<path d="M85.356,36.93l-9.901-9.9L42.929,59.556L24.544,41.171l-9.899,9.899l28.284,28.285L85.356,36.93z"/>
	</g>
	<g id="icon-deny-only">
		<path d="M80.404,29.493l-9.898-9.898L50,40.101L29.494,19.595l-9.9,9.898L40.1,50L19.594,70.506l9.9,9.9L50,59.898l20.506,20.506l9.898-9.899L59.898,50L80.404,29.493z"/>
	</g>
	<g id="icon-edit">
		<path d="M46.189,67.762l52.484-52.571c1.307-1.306,1.307-3.427,0-4.736l-9.457-9.472
			c-1.304-1.311-3.425-1.311-4.729,0L32,53.549L46.189,67.762z M88,38.525v47.238C88,86.998,86.995,88,85.763,88H14.234
			C13,88,12,86.998,12,85.764v-71.53C12,13,13,12,14.234,12h43.391l11.98-12H5.001C2.239,0,0,2.239,0,5v90
			C0,97.759,2.239,100,5.001,100h90c2.764,0,4.999-2.241,4.999-5.001V26.506L88,38.525z M23.738,75.935l18.991-5.104L28.832,56.915
			L23.738,75.935z"/>
	</g>
	<g id="icon-phone">
		<path d="M71.484,0H28.516c-3.236,0-5.859,2.624-5.859,5.859v88.281
			c0,3.236,2.624,5.859,5.859,5.859h42.969c3.236,0,5.859-2.623,5.859-5.859V5.859C77.344,2.624,74.721,0,71.484,0z M44.219,4.922
			h11.328v1.562H44.219V4.922z M49.883,96.562c-2.265,0-4.102-1.836-4.102-4.102s1.836-4.102,4.102-4.102
			c2.266,0,4.102,1.836,4.102,4.102S52.148,96.562,49.883,96.562z M70,85.5H30v-75h40V85.5z"/>
		<path fill-opacity="0.3" d="M30,10.5v75h40v-75H30z"/>
	</g>
	<g id="icon-refreash">
		<path d="M68.167,75.925c-5.511,3.86-11.953,5.797-18.543,5.706c-0.871-0.01-1.737-0.052-2.591-0.13
			c-0.35-0.033-0.7-0.088-1.05-0.134c-0.674-0.088-1.344-0.179-2.003-0.306c-0.404-0.078-0.797-0.18-1.196-0.273
			c-0.641-0.15-1.283-0.303-1.909-0.492c-0.303-0.091-0.597-0.198-0.897-0.299c-0.724-0.241-1.443-0.492-2.144-0.785
			c-0.159-0.064-0.312-0.14-0.47-0.211c-0.82-0.358-1.631-0.739-2.414-1.162c-0.034-0.02-0.068-0.039-0.104-0.059
			c-2.653-1.455-5.078-3.271-7.204-5.395c-0.036-0.035-0.068-0.074-0.104-0.11c-0.659-0.664-1.291-1.357-1.89-2.08
			c-0.129-0.153-0.248-0.322-0.373-0.479c-4.333-5.417-6.941-12.272-6.941-19.73h8.333l-13.333-20L0,49.987h8.333
			c0,8.766,2.734,16.895,7.376,23.614c0.059,0.094,0.098,0.195,0.161,0.286c0.48,0.687,1.014,1.321,1.53,1.973
			c0.193,0.244,0.373,0.498,0.573,0.739c0.762,0.921,1.567,1.79,2.397,2.637c0.078,0.081,0.151,0.166,0.231,0.244
			c2.787,2.789,5.935,5.14,9.36,7.018c0.093,0.053,0.183,0.107,0.277,0.156c0.988,0.531,2,1.013,3.032,1.465
			c0.255,0.111,0.506,0.231,0.765,0.342c0.882,0.365,1.784,0.684,2.695,0.986c0.43,0.146,0.856,0.3,1.292,0.43
			c0.798,0.238,1.611,0.437,2.429,0.629c0.545,0.127,1.085,0.264,1.639,0.371c0.228,0.045,0.446,0.113,0.674,0.152
			c0.773,0.137,1.548,0.212,2.321,0.307c0.28,0.032,0.553,0.081,0.835,0.11c1.388,0.137,2.776,0.225,4.16,0.225
			c8.47,0,16.732-2.588,23.822-7.556c2.262-1.585,2.812-4.7,1.227-6.963C73.545,74.886,70.423,74.339,68.167,75.925z
			M91.67,49.987c-0.003-8.74-2.722-16.852-7.341-23.558c-0.064-0.111-0.113-0.228-0.188-0.335
			c-0.573-0.82-1.201-1.582-1.823-2.35c-0.074-0.095-0.14-0.192-0.218-0.283c-4.226-5.13-9.538-9.095-15.554-11.687
			c-0.166-0.071-0.328-0.149-0.494-0.221c-0.961-0.397-1.943-0.749-2.937-1.074c-0.354-0.121-0.706-0.248-1.067-0.358
			c-0.863-0.257-1.738-0.469-2.621-0.674c-0.488-0.114-0.973-0.238-1.468-0.332c-0.241-0.049-0.472-0.121-0.713-0.163
			c-0.661-0.117-1.318-0.166-1.979-0.25c-0.455-0.059-0.904-0.13-1.363-0.172c-1.107-0.104-2.207-0.15-3.308-0.169
			c-0.202,0-0.391-0.029-0.592-0.029c-0.036,0-0.07,0.01-0.106,0.013c-8.462,0.006-16.708,2.562-23.789,7.52
			c-2.262,1.585-2.812,4.7-1.227,6.963c1.58,2.266,4.7,2.812,6.963,1.227c5.469-3.828,11.851-5.771,18.394-5.709
			c0.937,0.006,1.869,0.052,2.783,0.14c0.28,0.029,0.561,0.072,0.84,0.107c0.752,0.091,1.501,0.199,2.233,0.342
			c0.325,0.065,0.645,0.146,0.964,0.218c0.723,0.166,1.441,0.338,2.145,0.553c0.225,0.068,0.443,0.15,0.668,0.222
			c0.804,0.264,1.598,0.547,2.373,0.872c0.081,0.033,0.159,0.072,0.237,0.104c4.658,2.005,8.747,5.091,11.937,8.952
			c0.02,0.023,0.039,0.052,0.059,0.075c4.489,5.466,7.191,12.451,7.194,20.059h-8.337l13.337,20l13.33-20H91.67z"/>
	</g>
	<g id="icon-hourglass">
		<path fill-opacity="0.5" d="M22.375,12c-1.146,0.901,0.642,12.761,0.938,13.444
			c3.649,8.404,7.657,12.042,14.449,17.164c2.015,1.52,6.688,4.418,5.9,8.348c-0.694,3.46-6.046,6.566-8.582,8.515
			c-6.821,5.241-11.731,10.824-12.873,21.891c-0.177,1.713-0.288,5.033,0.167,6.639c18.347,0.033,36.699-0.034,55.046,0
			c1.337-2.317,0.036-10.202-0.537-12.237c-2.03-7.218-6.407-11.927-11.632-15.924c-2.8-2.141-8.485-5.367-9.019-9.453
			c-0.472-3.617,4.422-6.672,6.403-8.18c6.448-4.907,12.557-9.925,14.583-19.276c0.431-1.987,1.321-8.967,0.201-10.93
			C68.359,11.989,31.66,11.966,22.375,12z"/>
		<path d="M41.891,39.418c1.162,0.793,2.325,1.587,3.487,2.38
			c1.345,1.472,3.261,2.715,4.291,4.358c0.13,0.208,0.264,0.558,0.469,0.301c0.676-0.258,2.084-2.776,3.319-3.688
			c4.161-3.073,7.149-4.352,10.962-8.079c0.716-0.7,4.264-5.926,1.643-6.47c-10.592-0.022-21.188-0.045-31.78-0.067
			C30.286,30.491,38.738,38.602,41.891,39.418z M67.671,72.473c-4.026-5.522-9.596-9.551-14.817-13.879
			c-0.634-0.525-2.548-3.173-2.984-3.318c-1.42,2.605-4.109,4.352-6.369,6.135c-3.663,2.889-7.408,5.985-10.225,9.722
			c-1.107,1.468-4.273,5.072-3.654,7.71c0.698,2.973,5.138,2.246,8.75,2.246c7.609-0.011,15.221-0.022,22.83-0.033
			c2.693-0.287,6.415,0.669,8.112-0.671C71.969,78.288,68.896,74.152,67.671,72.473z"/>
		<path d="M90,6c0,3.313-2.686,6-6,6H16c-3.313,0-6-2.687-6-6l0,0c0-3.313,2.687-6,6-6h68C87.314,0,90,2.687,90,6L90,6z"/>
		<path d="M90,94c0,3.313-2.686,6-6,6H16c-3.313,0-6-2.687-6-6l0,0c0-3.313,2.687-6,6-6h68C87.314,88,90,90.687,90,94L90,94z"/>
	</g>
	<g id="icon-language">
		<polygon points="70.833,62.496 16.667,62.5 16.667,100"/>
		<path d="M100,41.667c0,23.71-22.388,41.667-50,41.667c-27.616,0-50-17.956-50-41.667C0,17.957,22.384,0,50,0C77.612,0,100,17.957,100,41.667z"/>
	</g>
	<g id="icon-support">
		<path d="M50.053,0c6.857,0,13.326,1.307,19.406,3.919c6.08,2.613,11.382,6.198,15.907,10.752
			c4.524,4.555,8.095,9.869,10.71,15.943C98.691,36.688,100,43.149,100,50c0,6.92-1.308,13.418-3.924,19.491
			c-2.615,6.073-6.186,11.371-10.71,15.891c-4.525,4.52-9.827,8.086-15.907,10.698C63.379,98.693,56.91,100,50.053,100
			c-6.928,0-13.432-1.307-19.512-3.92c-6.08-2.612-11.382-6.179-15.906-10.698c-4.525-4.52-8.095-9.817-10.711-15.891
			C1.308,63.418,0,56.92,0,50c0-6.851,1.308-13.312,3.923-19.386c2.616-6.073,6.187-11.388,10.711-15.943
			c4.524-4.555,9.826-8.139,15.906-10.752C36.621,1.306,43.125,0,50.053,0L50.053,0z M53.233,87.183c1.98,0,3.659-0.689,5.038-2.066
			s2.068-3.055,2.068-5.032c0-2.047-0.689-3.761-2.068-5.137c-1.379-1.378-3.058-2.066-5.038-2.066c-2.049,0-3.764,0.688-5.142,2.066
			c-1.378,1.376-2.068,3.09-2.068,5.137c0,1.978,0.689,3.655,2.068,5.032S51.185,87.183,53.233,87.183L53.233,87.183z M60.021,58.369
			c0-0.919,0.654-2.014,1.962-3.285c1.308-1.271,2.757-2.841,4.348-4.713c1.59-1.872,3.058-4.061,4.4-6.568
			c1.344-2.507,2.015-5.456,2.015-8.845c0-2.26-0.441-4.626-1.325-7.098c-0.884-2.472-2.279-4.732-4.188-6.779
			c-1.909-2.048-4.366-3.743-7.37-5.085c-3.005-1.342-6.629-2.013-10.87-2.013c-4.948,0-8.89,0.865-11.823,2.596
			c-2.935,1.73-5.161,3.831-6.682,6.303c-1.519,2.472-2.509,5.032-2.969,7.68c-0.459,2.648-0.689,4.891-0.689,6.728
			c0,1.694,0.707,2.895,2.121,3.601c1.414,0.706,2.951,1.006,4.612,0.901c1.662-0.106,3.199-0.601,4.613-1.483
			c1.415-0.883,2.121-2.066,2.121-3.549c0-0.918,0.053-1.942,0.159-3.072c0.106-1.129,0.459-2.207,1.061-3.23
			c0.601-1.024,1.502-1.872,2.705-2.542c1.201-0.671,2.863-1.007,4.984-1.007c3.323,0,5.956,0.919,7.9,2.755s2.916,3.989,2.916,6.462
			c0,2.048-0.689,4.025-2.067,5.932c-1.38,1.907-2.882,3.655-4.508,5.244c-1.625,1.588-3.127,3.001-4.507,4.237
			c-1.378,1.235-2.067,2.207-2.067,2.913v7.732c0,0.636,0.689,1.113,2.067,1.431c1.379,0.317,2.882,0.459,4.507,0.424
			c1.626-0.035,3.128-0.23,4.508-0.583c1.378-0.353,2.067-0.918,2.067-1.695V58.369L60.021,58.369L60.021,58.369z M60.021,58.369"/>
	</g>
	<g id="icon-livechat">
		<path d="M95.304,42.443c-2.688-22.507-21.94-39.966-45.3-39.966c-23.375,0-42.611,17.466-45.301,39.966
			C1.943,43.891,0,46.68,0,49.993v12.963c0,4.769,3.893,8.647,8.697,8.647c4.804,0,8.69,0.444,8.69-4.331v-17.28
			c0-2.954-1.584-5.428-3.857-6.991c2.402-17.961,17.724-31.885,36.467-31.885s34.065,13.917,36.466,31.893
			c-2.272,1.556-3.857,4.037-3.857,6.991v12.962c0,0.746,0.251,1.413,0.43,2.108c-3.412,7.493-8.84,14.082-15.529,18.412
			c-1.6-1.936-3.915-3.24-6.633-3.24c-4.804,0-8.704,3.864-8.704,8.633c0,4.768,3.894,8.646,8.704,8.646
			c4.805,0,8.69-3.879,8.69-8.646c0-0.036-0.021-0.064-0.021-0.101c8.103-3.851,14.87-10.023,19.495-17.624
			c0.738,0.201,1.463,0.452,2.266,0.452c4.804,0,8.697-3.879,8.697-8.647V49.993C100,46.68,98.057,43.891,95.304,42.443
			L95.304,42.443z M95.304,42.443"/>
	</g>
	<g id="icon-home">
		<path d="M50.001,4.989c0,0-30.932,26.708-48.216,41.172C0.769,47.08,0,48.422,0,50.002c0,2.765,2.235,5,5,5H15
			v35.009c0,2.765,2.235,5,4.999,5h15.001c2.764,0,4.999-2.239,4.999-5V70.007h20v20.004c0,2.761,2.235,5,4.999,5h15
			c2.764,0,4.999-2.235,4.999-5V55.002h10.003c2.764,0,4.999-2.235,4.999-5c0-1.58-0.77-2.922-1.917-3.841
			C80.918,31.697,49.994,4.989,49.994,4.989H50.001z M50.001,4.989"/>
	</g>
	<g id="pd-info">
		<path d="M50.01,40.01c3.314,0,6-2.687,6-6s-2.686-6-6-6c-3.313,0-6,2.687-6,6
			S46.697,40.01,50.01,40.01z M55.01,61.01v-7.988h0.012V43.021H42.021v10.001h2.99v7.988h-2.99v10h2.99v0.012h10V71.01h3.012v-10
			H55.01z
			M14.645,85.355c0.105,0.105,0.216,0.202,0.322,0.306l-0.627-0.627
			C14.443,85.14,14.54,85.25,14.645,85.355z M85.355,14.645c-19.526-19.526-51.185-19.526-70.711,0
			C4.401,24.888-0.458,38.469,0.045,51.887l25.701-25.701c0.073-0.075,0.142-0.153,0.216-0.228
			C39.241,12.68,60.769,12.68,74.047,25.958c13.276,13.277,13.278,34.8,0.005,48.08l0.005,0.005L48.143,99.956
			c13.408,0.495,26.978-4.365,37.213-14.601C104.882,65.829,104.882,34.171,85.355,14.645z"/>
		<path fill-opacity=".8" d="M74.052,74.037l-0.005,0.005c-11.753,11.753-29.963,13.095-43.201,4.043
			l-10.83,1.911l1.911-10.827c-9.005-13.161-7.729-31.242,3.838-43.002L0.045,51.886c0.452,12.029,5.22,23.922,14.308,33.163
			l0.598,0.599c9.249,9.095,21.152,13.863,33.19,14.308l25.914-25.914L74.052,74.037z"/>
	</g>
	<g id="pd-currency">
		<path d="M39.964,16.566c0.739,0.544,7.287,0.258,8.901,0.258
			c3.521-0.006,7.044-0.013,10.565-0.02c1.519-0.376,7.901-9.75,8.228-11.835c0.331-2.12-3.438-5.333-5.77-4.936
			c-2.723,0.465-3.06,3.288-5.769,3.608c-3.303,0.391-3.171-3.868-6.482-3.39c-2.509,0.362-3.06,3.737-5.848,3.39
			c-3.098-0.386-3.009-3.654-6.839-3.627c-1.666,0.457-5.008,2.731-4.698,4.936C32.591,7.351,38.271,15.319,39.964,16.566z
			 M54.931,18.647H39.905c-1.172,0.472-1.615,3.701-0.238,4.302c5.59,0.02,11.181,0.04,16.771,0.06
			c1.967-0.209,4.164,0.639,4.56-1.169c0.225-1.029,0.021-2.577-0.516-2.974C59.794,18.357,56.17,18.647,54.931,18.647z
			 M85.776,67.176c-3.551-12.63-9.374-22.288-16.374-31.381c-2.314-3.006-4.835-5.726-7.335-8.524
			c-0.753-0.753-1.507-1.507-2.26-2.26c-0.954-0.49-3.056-0.158-4.341-0.158c-4.533-0.007-9.067-0.013-13.599-0.02
			c-0.627,0.145-1.349-0.072-1.804,0.198c-0.806,0.812-1.612,1.625-2.418,2.438c-2.396,2.784-4.884,5.441-7.176,8.365
			c-6.604,8.423-12.486,17.837-15.819,29.477c-1.7,5.938-2.166,13.569,0.06,19.309c3.185,8.215,11.337,12.031,20.755,14.055
			c3.105,0.667,6.294,0.694,9.793,1.07c3.559,0.382,7.894,0.316,11.399-0.079c6.606-0.746,12.393-1.649,17.325-3.965
			c4.129-1.938,7.422-4.664,9.812-8.346C86.867,82.624,87.677,73.935,85.776,67.176z M57.806,77.701
			c-1.489,1.184-3.15,1.447-5.293,2.082c-0.033,0.997-0.066,1.995-0.1,2.993c-0.163,0.112-4.015,0.123-4.083,0.04
			c-0.013-0.945-0.026-1.891-0.04-2.835c-0.826-0.093-1.652-0.186-2.478-0.277c-1.248-0.148-5.754-0.84-6.383-1.388
			c-0.047-0.478,1.367-5.085,1.625-5.432c1.196,0.271,2.392,0.542,3.588,0.812c2.529,0.521,9.438,1.146,10.051-1.288
			c0.327-1.303-0.12-2.671-0.853-3.192c-1.098-0.781-2.788-0.938-4.341-1.248c-2.141-0.428-4.38-0.82-5.987-1.805
			c-4.822-2.954-4.95-10.058-0.436-13.44c1.491-1.117,3.055-1.465,5.174-2.061c0.216-0.677-0.285-2.364,0.218-2.815
			c1.275,0.006,2.551,0.013,3.826,0.02c0.423,0.481-0.012,1.985,0.158,2.637c0.344,0.268,1.072,0.167,1.586,0.258
			c1.155,0.204,5.678,0.989,6.105,1.625c-0.574,1.777-1.149,3.556-1.725,5.333c-0.984-0.265-1.969-0.528-2.953-0.793
			c-3.361-0.833-9.451-1.456-9.972,2.319c-0.104,0.756,0.263,1.451,0.654,1.744c1.115,0.837,2.961,0.936,4.56,1.269
			c1.925,0.402,3.925,0.764,5.432,1.606c1.235,0.69,2.325,1.576,3.092,2.735C61.58,70.149,60.596,75.483,57.806,77.701z"/>
	</g>
	<g id="pd-card">
		<path d="M89.286,0H10.714C4.797,0,0,4.799,0,10.714v3.572h100v-3.572
			C100,4.799,95.201,0,89.286,0z
			M0,25v28.572c0,5.914,4.797,10.713,10.714,10.713h78.572
			c5.915,0,10.714-4.799,10.714-10.713V25H0z M39.643,53.572H8.929c-0.987,0-1.786-0.803-1.786-1.787c0-0.99,0.798-1.785,1.786-1.785
			h30.714c0.987,0,1.786,0.795,1.786,1.785C41.429,52.77,40.63,53.572,39.643,53.572z M57.5,46.429H8.929
			c-0.987,0-1.786-0.803-1.786-1.786c0-0.99,0.798-1.786,1.786-1.786H57.5c0.986,0,1.785,0.796,1.785,1.786
			C59.285,45.626,58.486,46.429,57.5,46.429z"/>
	</g>
	<g id="pd-card2">
		<path  d="M90,15.5H10c-5.523,0-10,4.477-10,10V28h100v-2.5
			C100,19.977,95.522,15.5,90,15.5z M0,75.5c0,5.522,4.477,10,10,10h80c5.522,0,10-4.478,10-10V42H0V75.5z M91,58.5h1v18h-1V58.5z
			 M85,58.5h4v18h-4V58.5z M82,58.5h1v18h-1V58.5z M80,58.5h1v18h-1V58.5z M75,58.5h4v18h-4V58.5z M72,58.5h2v18h-2V58.5z M68,58.5
			h2v18h-2V58.5z M65,58.5h1v18h-1V58.5z M59,58.5h4v18h-4V58.5z M56,58.5h1v18h-1V58.5z M54,58.5h1v18h-1V58.5z M49,58.5h4v18h-4
			V58.5z M46,58.5h2v18h-2V58.5z M42,58.5h2v18h-2V58.5z"/>
		<path opacity="0.2" d="M0,28h100v14H0V28z"/>
	</g>
	<g id="pd-item">
		<path d="M71.265,56.514c-2.65-3.061-5.301-6.122-7.95-9.183
			c8.246-7.38,16.495-14.763,24.741-22.144c1.903-1.633,5.272-3.961,6.429-6.166c0.73-1.395,0.636-3.32,0.865-5.274
			c0.262-2.903,0.524-5.807,0.787-8.71c0.157-1.662,0.315-3.324,0.472-4.985c-2.991,0.254-5.981,0.507-8.973,0.761
			c-3.102,0.359-7.073,0.031-9.655,1.102c-2.271,0.943-4.618,4.356-6.191,6.191c-4.434,4.95-8.868,9.901-13.303,14.851
			c-0.902,1.063-8.236,9.437-8.631,9.393c-6.943-7.765-13.889-15.533-20.833-23.298c-1.597-1.913-4.394-5.629-6.454-6.848
			c-1.772-1.048-4.78-0.833-7.294-1.128C11.322,0.717,7.368,0.358,3.416,0C3.73,3.638,4.045,7.276,4.36,10.915
			c0.311,2.69,0.056,6.107,1.128,8.107c1.146,2.137,4.282,4.331,6.14,5.903c5.439,4.871,10.88,9.743,16.319,14.614
			c1.051,0.873,8.56,7.271,8.71,7.897c-2.65,2.99-5.3,5.982-7.95,8.973c0.857,0.9,1.714,1.802,2.571,2.702
			c2.964,2.93,5.93,5.86,8.895,8.789c3.262-2.876,6.524-5.755,9.786-8.632h0.131c3.262,2.877,6.524,5.756,9.786,8.632
			C63.673,64.105,67.469,60.309,71.265,56.514z M38.206,70.84c-4.46-4.461-8.921-8.922-13.38-13.381
			c-1.84-1.721-4.054-5.431-7.373-5.405c-2.206,0.681-3.648,1.736-4.696,3.516c-2.324,3.947,3.683,8.092,5.615,10.022
			c0.36,0.361,1.22,0.902,1.233,1.47C15.153,71.504,10.7,75.947,6.249,80.39c-1.634-0.155-3.423-5.415-5.982-1.443
			c-1.217,1.89,2.066,4.27,2.991,5.195c4.154,4.102,8.309,8.204,12.462,12.306c1.646,0.813,3.68-1.069,3.228-2.755
			c-0.29-1.079-1.539-1.935-2.256-2.65c-0.184-0.219-0.367-0.438-0.551-0.656c4.486-4.477,8.973-8.956,13.459-13.434
			c0.507,0.464,1.015,0.927,1.521,1.392c1.829,1.829,5.616,7.307,9.419,5.798c1.892-0.751,5.193-4.283,3.542-7.216
			C43.027,75.053,39.84,72.367,38.206,70.84z M96.766,77.739c-0.953,0.884-1.906,1.767-2.859,2.65
			c-0.659-0.064-3.042-2.783-3.568-3.357c-3.331-3.333-6.664-6.665-9.996-9.997v-0.026c0.123-0.613,1.017-1.173,1.417-1.574
			c2.453-2.453,8.836-6.696,4.461-11.072c-1.108-1.107-2.03-2.334-4.277-2.309c-3.554,0.994-5.545,4.128-7.845,6.428
			c-4.312,4.312-8.623,8.624-12.935,12.935c-1.743,1.742-5.358,4.261-5.693,7.137c-0.352,3.014,4.086,7.051,7.241,5.562
			c2.594-1.223,5.213-5.293,7.556-7.163c1.054,0.272,2.137,2.035,2.886,2.755c3.551,3.534,7.103,7.067,10.653,10.6
			c-0.228,1.541-5.607,3.652-1.312,6.114c1.789,1.023,4.38-2.465,5.194-3.28c4.006-4.022,8.012-8.046,12.018-12.068
			C100.776,79.403,98.73,76.973,96.766,77.739z"/>
	</g>
	<g id="pd-leveling">
		<path d="M84,0H65.868v8.333h-9.069V0H43.2v8.333h-9.066V0H16v16.667h8.509C22.542,39.87,16,100,16,100h22.667V85.416
			C38.667,79.663,43.739,75,50,75c6.259,0,11.333,4.663,11.333,10.416V100H84c0,0-6.536-60.13-8.512-83.333H84V0z M63.101,43.974
			c-1.379,1.368-3.622,1.368-5,0l-4.57-4.522v19.552c0,1.931-1.579,3.497-3.533,3.497c-1.951,0-3.534-1.566-3.534-3.497V39.451
			l-4.567,4.522C41.207,44.659,40.3,45,39.396,45c-0.902,0-1.809-0.341-2.499-1.025c-1.377-1.366-1.377-3.582,0-4.949l10.599-10.498
			c0.64-0.634,1.525-1.027,2.5-1.027c0.98,0,1.861,0.394,2.502,1.027l10.602,10.498C64.479,40.393,64.479,42.609,63.101,43.974z"/>
	</g>
	<g id="pd-account">
		<path d="M84.613,0H7.692C3.444,0,0,3.444,0,7.692v69.23c0,4.244,3.444,7.692,7.692,7.692h23.073L46.152,100
		l15.384-15.385h23.077c4.252,0,7.692-3.448,7.692-7.692V7.692C92.306,3.444,88.865,0,84.613,0z M45.354,11.539
		c7.724,0,13.982,6.257,13.982,13.987c0,7.722-6.258,13.987-13.982,13.987c-7.726,0-13.988-6.265-13.988-13.987
		C31.366,17.796,37.628,11.539,45.354,11.539z M64.834,73.077H25.868c0,0-5.69-27.975,19.486-27.975
		C70.528,45.102,64.834,73.077,64.834,73.077z"/>
	</g>
	<g id="pd-game">
		<rect x="23.714" y="30.351" width="6.667" height="16.666"/>
		<rect x="18.714" y="35.351" width="16.667" height="6.667"/>
		<circle cx="78.334" cy="41.666" r="5"/>
		<circle cx="68.334" cy="35" r="5"/>
		<path d="M96.875,45.667c-2.994-11.058-4.569-29-22.609-29C60.001,16.667,63.335,20,52.932,20h-2.931l0,0h-2.934
			c-10.404,0-7.07-3.333-21.331-3.333c-18.04,0-19.615,17.942-22.61,29c-9.238,40.805,4.521,37.609,8.876,37.609
			s11.667-7.885,18.199-15.977c6.295-7.793,15.508-7.272,19.799-7.305l0,0c4.291,0.032,13.503-0.488,19.799,7.305
			c6.529,8.092,13.84,15.977,18.195,15.977S106.113,86.472,96.875,45.667z M27.116,51.381c-7.174,0-12.988-5.721-12.988-12.788
			c0-7.057,5.814-12.783,12.988-12.783s12.988,5.726,12.988,12.783C40.104,45.66,34.291,51.381,27.116,51.381z M72.879,51.381
			c-7.168,0-12.988-5.721-12.988-12.788c0-7.057,5.82-12.783,12.988-12.783c7.174,0,12.987,5.726,12.987,12.783
			C85.866,45.66,80.053,51.381,72.879,51.381z"/>
	</g>
	<g id="pd-merchandise">
		<path d="M94.136,32.134c-2.026-2.033-4.053-4.066-6.079-6.099
			c-8.452-3.085-16.906-6.171-25.358-9.257c-4.274-1.575-8.551-3.151-12.826-4.727c-0.146,0.338-3.621,1.392-4.236,1.628
			c-4.288,1.569-8.577,3.138-12.865,4.707c-6.935,2.549-13.873,5.1-20.808,7.649C7.976,30.028,3.987,34.023,0,38.017
			c0.006,0.02,0.013,0.04,0.02,0.059c12.629,4.615,25.261,9.231,37.89,13.846c3.968-3.961,7.937-7.923,11.904-11.885
			c0.007-0.013,0.013-0.026,0.02-0.039c-0.343-0.391-1.185-0.486-1.707-0.687c-1.98-0.726-3.961-1.451-5.942-2.177
			c-8.125-3.007-16.252-6.015-24.377-9.021c0.013-0.052,0.026-0.104,0.039-0.157c10.752-3.902,21.508-7.806,32.261-11.708
			c5.726,2.105,11.454,4.21,17.18,6.315c3.771,1.379,7.544,2.759,11.315,4.138c1.17,0.412,2.341,0.824,3.511,1.236
			c0.032,0.052,0.065,0.104,0.098,0.157c-0.156,0.085-0.313,0.17-0.471,0.255c-2.386,0.87-4.772,1.739-7.158,2.608
			c-8.125,2.994-16.252,5.988-24.377,8.982c-0.007,0.007-0.013,0.013-0.02,0.02c1.549,1.569,3.099,3.138,4.647,4.707
			c2.419,2.418,4.838,4.838,7.257,7.256c1.673-0.602,3.347-1.203,5.021-1.804c4.059-1.471,8.119-2.942,12.179-4.413
			c0.7-0.288,4.27-1.796,4.824-1.706c0.007,9.086,0.014,18.174,0.02,27.26c-11.341,4.151-22.685,8.303-34.026,12.454
			c-0.046-0.026-0.092-0.053-0.137-0.079c-0.007-13.033-0.013-26.071-0.02-39.105c-0.007-0.006-0.013-0.013-0.02-0.02
			c-3.719,3.693-7.439,7.388-11.159,11.08c-0.325,0.164-5.731-2.074-6.492-2.313c-6.726-2.458-13.454-4.917-20.18-7.374
			l-0.098,0.059v27.986c12.707,4.667,25.418,9.335,38.125,14.002c2.675-1.493,6.601-2.485,9.61-3.589
			c9.419-3.464,18.841-6.93,28.261-10.394c0.025-10.491,0.052-20.986,0.078-31.477c3.975-1.471,7.949-2.942,11.924-4.413
			C98.046,36.096,96.091,34.114,94.136,32.134z M80.761,65.689l-0.196-0.059c-1.006,0.411-2.014,0.823-3.02,1.235v1.529
			c0.013,0.614,0.025,1.229,0.039,1.844c1.046-0.373,2.092-0.745,3.138-1.118C80.734,67.978,80.748,66.833,80.761,65.689z
			 M75.839,67.435c-0.053-0.006-0.105-0.013-0.157-0.02c-1,0.393-2.001,0.784-3.001,1.177c-0.006,1.131-0.013,2.262-0.02,3.393
			l0.039,0.039c1.04-0.365,2.079-0.731,3.118-1.098C75.825,69.762,75.832,68.599,75.839,67.435z M70.798,69.2
			c-1.006,0.398-2.014,0.797-3.02,1.196c0.006,1.131,0.013,2.262,0.02,3.393c1.032-0.354,2.065-0.706,3.099-1.06
			C71.071,72.36,70.971,69.249,70.798,69.2z"/>
	</g>
	<g id="page_loading">
		<path id="base" transform="translate(-50,-50)" d="M50,0C22.386,0,0,22.386,0,50s22.386,50,50,50s50-22.386,50-50S77.614,0,50,0z
			 M50,90c-22.091,0-40-17.909-40-40s17.909-40,40-40c22.092,0,40,17.909,40,40S72.092,90,50,90z"/>
		<path id="circle1" transform="translate(-50,-50)" d="M50,10c22,0,40,18,40,40h10C100,22,77,0.011,50,0H50V10z"/>
	</g>
</symbol>
<use xlink:href="#seagm-text" x="110" y="20" fill="#000"/>
<use xlink:href="#icon-search" x="0" y="100" fill="#000"/>
<use xlink:href="#icon-search" x="100" y="100" fill="#fff"/>
<use xlink:href="#icon-close" x="0" y="200" fill="#fff"/>
<use xlink:href="#icon-close" x="0" y="300" fill="#000"/>
<use xlink:href="#icon-close-thin" x="100" y="200" fill="#fff"/>
<use xlink:href="#icon-close-thin" x="100" y="300" fill="#000"/>
<use xlink:href="#icon-arrow" x="900" y="300" fill="#000"/>
<use xlink:href="#icon-check" x="800" y="300" fill="#f90"/>
<use xlink:href="#icon-check" x="700" y="300" fill="#64BC4E"/>
<use xlink:href="#icon-check" x="700" y="400" fill="#000"/>
<use xlink:href="#icon-deny" x="600" y="300" fill="#f30"/>

<use xlink:href="#icon-nav" x="700" y="0" fill="#000"/>
<use xlink:href="#icon-user" x="200" y="100" fill="#000"/>
<use xlink:href="#icon-reg" x="200" y="300" fill="#000"/>
<use xlink:href="#icon-cart" x="300" y="104" fill="#000"/>
<use xlink:href="#icon-notification" x="407.5" y="100" fill="#000"/>
<use xlink:href="#icon-settings" x="500" y="100" fill="#000"/>
<use xlink:href="#icon-region" x="600" y="100" fill="#000"/>
<use xlink:href="#icon-password" x="708" y="100" fill="#000"/>
<use xlink:href="#icon-order" x="810" y="100" fill="#000"/>
<use xlink:href="#icon-account" x="900" y="106" fill="#000"/>
<use xlink:href="#icon-logout" x="400" y="300" fill="#000"/>

<use xlink:href="#icon-nav" x="800" y="0" fill="#fff"/>
<use xlink:href="#icon-user" x="200" y="200" fill="#fff"/>
<use xlink:href="#icon-reg" x="300" y="300" fill="#fff"/>
<use xlink:href="#icon-cart" x="300" y="204" fill="#fff"/>
<use xlink:href="#icon-notification" x="407.5" y="200" fill="#fff"/>
<use xlink:href="#icon-settings" x="500" y="200" fill="#fff"/>
<use xlink:href="#icon-region" x="600" y="200" fill="#fff"/>
<use xlink:href="#icon-password" x="708" y="200" fill="#fff"/>
<use xlink:href="#icon-order" x="810" y="200" fill="#fff"/>
<use xlink:href="#icon-account" x="900" y="206" fill="#fff"/>
<use xlink:href="#icon-logout" x="500" y="300" fill="#fff"/>

<use xlink:href="#icon-foward" x="800" y="700" fill="#fff"/>
<use xlink:href="#icon-back" x="900" y="700" fill="#fff"/>
<use xlink:href="#icon-foward" x="800" y="800" fill="#000"/>
<use xlink:href="#icon-back" x="900" y="800" fill="#000"/>
<use xlink:href="#icon-link" x="900" y="600" fill="#000"/>
<use xlink:href="#icon-mail" x="900" y="416" fill="#fff"/>
<use xlink:href="#icon-mail" x="700" y="516" fill="#000"/>
<use xlink:href="#icon-mail2" x="800" y="400" fill="#000"/>
<use xlink:href="#icon-clock" x="900" y="500" fill="#fff"/>
<use xlink:href="#icon-clock2" x="800" y="500" fill="#fff"/>
<use xlink:href="#icon-tips" x="600" y="400" fill="#000"/>
<use xlink:href="#icon-check-only" x="500" y="400" fill="#fff"/>
<use xlink:href="#icon-deny-only" x="400" y="400" fill="#fff"/>
<use xlink:href="#icon-check-only" x="300" y="400" fill="#000"/>
<use xlink:href="#icon-deny-only" x="200" y="400" fill="#000"/>
<use xlink:href="#icon-edit" x="600" y="500" fill="#000"/>
<use xlink:href="#icon-phone" x="700" y="600" fill="#000"/>
<use xlink:href="#icon-refreash" x="700" y="700" fill="#000"/>
<use xlink:href="#icon-hourglass" x="700" y="800" fill="#fff"/>
<use xlink:href="#icon-currency2" x="800" y="600" fill="#000"/>
<use xlink:href="#icon-currency2" x="600" y="700" fill="#fff"/>
<use xlink:href="#icon-language" x="600" y="600" fill="#000"/>

<use xlink:href="#pd-info" x="0" y="500" fill="#000"/>
<use xlink:href="#pd-currency" x="100" y="500" fill="#000"/>
<use xlink:href="#pd-card2" x="200" y="500" fill="#000"/>
<use xlink:href="#pd-item" x="300" y="502" fill="#000"/>
<use xlink:href="#pd-leveling" x="400" y="500" fill="#000"/>
<use xlink:href="#pd-account" x="503.5" y="500" fill="#000"/>
<use xlink:href="#pd-info" x="0" y="600" fill="#fff"/>
<use xlink:href="#pd-currency" x="100" y="600" fill="#fff"/>
<use xlink:href="#pd-card2" x="200" y="600" fill="#fff"/>
<use xlink:href="#pd-item" x="300" y="602" fill="#fff"/>
<use xlink:href="#pd-leveling" x="400" y="600" fill="#fff"/>
<use xlink:href="#pd-account" x="503.5" y="600" fill="#fff"/>
<use xlink:href="#pd-game" x="0" y="700" fill="#fff"/>
<use xlink:href="#pd-game" x="0" y="800" fill="#000"/>
<use xlink:href="#pd-merchandise" x="100" y="700" fill="#fff"/>
<use xlink:href="#pd-merchandise" x="100" y="800" fill="#000"/>
<use xlink:href="#icon-support" x="200" y="700" fill="#fff"/>
<use xlink:href="#icon-support" x="200" y="800" fill="#000"/>
<use xlink:href="#icon-livechat" x="300" y="700" fill="#fff"/>
<use xlink:href="#icon-livechat" x="300" y="800" fill="#000"/>
<use xlink:href="#icon-home" x="400" y="700" fill="#fff"/>
<use xlink:href="#icon-home" x="400" y="800" fill="#000"/>
<g id="seagm-logo-bak" transform="translate(7,0)">
	<linearGradient id="SVGID_1_" gradientUnits="userSpaceOnUse" x1="0" y1="50" x2="85" y2="50">
		<stop  offset="0" style="stop-color:#8A8A8A"/>
		<stop  offset="1" style="stop-color:#212121"/>
	</linearGradient>
	<path fill="url(#SVGID_1_)" d="M42.501,100C38.967,99.458,8.86,93.543,6.529,58.341l0,0c-0.901-13.674-2.516-23.954-3.897-30.82l0,0
		c-1.384-6.86-2.537-10.287-2.539-10.295l0,0L0,16.941l0.321-0.046C30.63,12.331,41.507,1.462,42.541,0.372l0,0l0.231-0.25
		l0.214,0.235l0.081,0.082l0,0c1.039,1.098,11.927,11.959,42.216,16.517l0,0l0.322,0.053l-0.09,0.284
		c-0.004,0.008-1.156,3.428-2.541,10.296l0,0c-1.383,6.861-2.996,17.144-3.898,30.814l0,0C77.842,77.08,68.773,87.507,60.016,93.228
		l0,0c-8.76,5.721-17.198,6.761-17.221,6.766l0,0"/>
	<path opacity="0.5" fill="#fff" d="M41.482,99.901c-0.281-0.053-0.57-0.096-0.855-0.148c-0.419-0.08-0.836-0.167-1.25-0.268
		c-0.455-0.105-0.91-0.225-1.355-0.355c-0.513-0.15-1.017-0.313-1.519-0.486c-0.565-0.201-1.134-0.421-1.693-0.646
		c-0.643-0.259-1.272-0.526-1.9-0.808c-0.697-0.315-1.397-0.645-2.091-0.99c-0.76-0.372-1.513-0.755-2.261-1.156
		c-0.804-0.438-1.601-0.883-2.391-1.351c-0.836-0.495-1.662-1.003-2.468-1.545c-0.846-0.562-1.675-1.147-2.479-1.763
		c-0.836-0.645-1.65-1.318-2.423-2.027c-0.811-0.743-1.578-1.518-2.3-2.329c-0.761-0.849-1.462-1.739-2.117-2.658
		c-0.685-0.983-1.312-1.999-1.884-3.038c-0.609-1.116-1.149-2.26-1.629-3.427c-0.514-1.246-0.97-2.513-1.373-3.8
		c-0.428-1.358-0.801-2.739-1.138-4.13C8,67.516,7.69,66.051,7.403,64.582c-0.296-1.521-0.564-3.043-0.832-4.567
		c-0.063-0.369-0.126-0.738-0.188-1.104c-0.065-0.364-0.168-0.751-0.191-1.117c-0.265-4.879-0.629-9.327-1.041-13.346
		c5.932,5.442,3.875,14.133,3.875,14.133c-3.375,15.002,7.649,25.322,7.649,25.322c-5.758-8.704-5.544-11.125-3.374-19.571
		c2.171-8.451,6.173-11.696-1.749-29.761c-4.351-9.93-8.296-14.676-10.971-16.942c-0.155-0.541-0.255-0.892-0.303-1.05
		c13.15,3.406,21.992-2.973,25.972-6.906C37.327,5.305,42.004,0.69,42.666,0c-0.002,0.159-0.002,0.317-0.004,0.476
		c-0.009,0.185-0.009,0.376-0.011,0.568c-0.004,0.245-0.004,0.491-0.006,0.736c-0.002,0.325-0.002,0.651-0.005,0.975
		c-0.003,0.419-0.006,0.841-0.009,1.256c-0.003,0.522-0.006,1.044-0.018,1.56c-0.005,0.626-0.009,1.244-0.012,1.863
		c-0.006,0.721-0.011,1.439-0.016,2.158c-0.013,0.793-0.019,1.598-0.023,2.4c-0.007,0.871-0.014,1.749-0.021,2.624
		c-0.005,0.933-0.019,1.869-0.027,2.803c-0.006,0.982-0.012,1.964-0.026,2.953c-0.008,1.024-0.014,2.047-0.024,3.078
		c-0.005,1.06-0.02,2.12-0.03,3.179c-0.007,1.094-0.014,2.187-0.021,3.28c-0.018,1.123-0.025,2.25-0.03,3.367
		c-0.01,1.154-0.024,2.301-0.034,3.447c-0.006,1.174-0.017,2.347-0.032,3.521c-0.005,1.194-0.015,2.385-0.024,3.571
		c-0.015,1.208-0.021,2.412-0.03,3.62c-0.011,1.202-0.017,2.413-0.033,3.624c-0.01,1.208-0.018,2.414-0.027,3.615
		c-0.013,1.2-0.024,2.401-0.032,3.593c-0.009,1.182-0.023,2.359-0.033,3.539c-0.007,1.161-0.015,2.321-0.031,3.479
		c-0.006,1.136-0.016,2.27-0.024,3.403c-0.013,1.112-0.023,2.218-0.031,3.322c-0.008,1.081-0.022,2.155-0.03,3.235
		c-0.009,1.045-0.013,2.091-0.021,3.129c-0.016,1.006-0.023,2.011-0.029,3.018c-0.007,0.95-0.012,1.91-0.027,2.868
		c-0.007,0.899-0.011,1.794-0.018,2.692c-0.006,0.826-0.013,1.656-0.023,2.482c-0.005,0.746-0.012,1.491-0.017,2.241
		c-0.005,0.653-0.008,1.306-0.012,1.956c-0.004,0.56-0.015,1.109-0.02,1.666c-0.005,0.456-0.01,0.918-0.012,1.373
		c-0.002,0.367-0.005,0.736-0.011,1.099c-0.001,0.293-0.011,0.586-0.014,0.877c-0.003,0.232-0.006,0.47-0.01,0.705
		c-0.002,0.203-0.007,0.401-0.008,0.602C41.69,99.932,41.59,99.917,41.482,99.901z"/>
	<linearGradient id="SVGID_2_" gradientUnits="userSpaceOnUse" x1="20" y1="20" x2="105" y2="107">
		<stop  offset="0" style="stop-color:#FED618"/>
		<stop  offset="1" style="stop-color:#DC4626"/>
	</linearGradient>
	<path fill="url(#SVGID_2_)" d="M9.7,57.605c2.207,33.277,31.32,37.84,33.102,38.1l0,0l0.205,0.031
		c0.632-0.104,2.297-0.398,4.569-1.089l0,0c2.931-0.892,6.875-2.438,10.877-5.06l0,0c8.014-5.238,16.314-14.741,17.453-31.927l0,0
		c1.547-23.308,5.301-36.026,5.906-37.966l0,0C54.719,15.56,44.34,5.988,42.771,4.387l0,0c-1.75,1.766-12.205,11.163-38.977,15.25
		l0,0C4.4,21.57,8.153,34.291,9.7,57.605L9.7,57.605z"/>
	<path fill="#fff" d="M42.933,96.189l-0.205-0.03c-1.819-0.246-31.275-4.924-33.505-38.527l0,0L9.7,57.605l0.473-0.031
		c2.188,32.948,30.962,37.395,32.704,37.674l0,0l0.13,0.017c0.667-0.104,2.263-0.404,4.428-1.061l0,0
		c2.896-0.881,6.79-2.409,10.752-4.997l0,0c7.91-5.188,16.1-14.527,17.238-31.575l0,0c1.453-21.857,4.842-34.429,5.777-37.565l0,0
		C55.875,16.103,45.229,7.386,42.771,5.045l0,0C40.204,7.472,29.519,16.08,4.4,20.008l0,0c0.941,3.131,4.327,15.702,5.772,37.566l0,0
		L9.7,57.605l-0.477,0.026C7.682,34.358,3.934,21.676,3.336,19.768l0,0l-0.161-0.512l0.542-0.082
		C30.397,15.104,40.75,5.756,42.43,4.066l0,0l0.344-0.343l0.35,0.345c1.49,1.527,11.761,11.047,38.763,15.169l0,0l0.543,0.082
		l-0.16,0.507c-0.596,1.906-4.346,14.59-5.889,37.865l0,0c-1.143,17.319-9.549,26.986-17.658,32.285l0,0
		c-4.055,2.646-8.036,4.213-11.002,5.113l0,0c-2.299,0.697-3.988,1.001-4.633,1.1l0,0l-0.08,0.01L42.933,96.189L42.933,96.189z"/>
	<path fill="#fff" d="M78.793,22.218c0,0.893-0.797,1.618-1.781,1.618c-0.979,0-1.775-0.725-1.775-1.618
		c0-0.892,0.797-1.615,1.775-1.615C77.996,20.603,78.793,21.326,78.793,22.218z"/>
	<path fill="#fff" d="M10.37,22.218c0,0.893-0.796,1.618-1.773,1.618c-0.985,0-1.781-0.725-1.781-1.618
		c0-0.892,0.796-1.615,1.781-1.615C9.574,20.603,10.37,21.326,10.37,22.218z"/>
	<path fill="#fff" d="M44.584,10.505c0,0.893-0.803,1.616-1.78,1.616c-0.986,0-1.782-0.724-1.782-1.616
		c0-0.893,0.796-1.616,1.782-1.616C43.782,8.889,44.584,9.612,44.584,10.505z"/>
	<path fill="#fff" d="M44.393,92.492c0,0.791-0.71,1.438-1.588,1.438s-1.589-0.647-1.589-1.438c0-0.8,0.711-1.444,1.589-1.444
		S44.393,91.692,44.393,92.492z"/>
	<path fill="#fff" d="M41.661,7.511c0,0-10.389,9.306-35.71,12.92C5.951,20.431,27.292,19.402,41.661,7.511z"/>
	<path fill="#fff" d="M70.064,53.207c-1.252-1.054-2.59-1.918-4.016-2.597c-1.053-0.493-2.129-0.948-3.223-1.374
		c-0.672-0.255-1.334-0.527-2.006-0.787c-0.088-1.328-0.443-2.697-1.07-4.114L46.114,48.5c-0.438-1.404-0.293-2.539,0.457-3.404
		c0.744-0.862,1.789-1.529,3.135-1.977c1.343-0.451,2.832-0.726,4.46-0.82c1.629-0.096,3.102-0.077,4.428,0.067
		c0.178-0.173,0.471-0.354,0.877-0.556c-1.564-0.775-3.324-1.131-5.297-1.058c-1.969,0.059-3.863,0.325-5.685,0.783
		c-1.336,0.346-2.671,0.729-3.985,1.161c-1.326,0.423-2.648,0.836-3.965,1.24l1.773,1.117c0.878,0.565,1.065,1.395,0.547,2.509
		c-0.51,1.105-0.63,2.362-0.356,3.77l13.4-4.092c0.621,1.358,0.863,2.791,0.727,4.275c-0.139,1.491-1.203,2.502-3.205,3.031
		c-1.646,0.439-3.531,0.396-5.657-0.129c-2.124-0.53-3.809-1.346-5.062-2.449c0.348,1.135,0.992,2.049,1.908,2.761l-0.942-0.053
		c0.511,0.437,0.833,0.837,0.958,1.194c0.127,0.368,0.041,0.688-0.262,0.951c-0.297,0.271-0.688,0.685-1.182,1.255
		c-0.504,0.601-1.143,1.695-1.915,3.3c-0.766,1.595-1.255,3.988-1.46,7.174c-0.095,1.592,0.119,3.11,0.651,4.541
		c0.53,1.431,1.135,2.701,1.834,3.799c0.686,1.103,1.634,2.294,2.835,3.584c-2.011-3.701-2.874-6.941-2.586-9.715
		c0.149-3.504,0.726-6.249,1.729-8.224c1.001-1.971,2.085-3.431,3.251-4.384c1.032-0.832,2.004-1.377,2.921-1.618
		c0.727,0.043,1.456,0.031,2.174-0.042l-0.115,4.969l-5.263-0.262l-0.725,1.474l6.289,0.307l-0.125,5.495
		c-0.053,0.431-0.133,0.778-0.246,1.062c-0.109,0.283-0.648,0.684-1.615,1.201l6.431,0.316c-0.369-0.419-0.666-0.719-0.906-0.913
		c-0.234-0.176-0.375-0.733-0.428-1.667l0.15-6.955c0.104,0.157,0.199,0.316,0.316,0.473c1.24,1.63,2.797,2.722,4.67,3.277
		c1.799,0.536,3.678,0.455,5.643-0.239c1.967-0.694,3.195-2.055,3.703-4.075c-1.025,1.092-2.424,1.922-4.162,2.473
		c-1.746,0.56-3.293,0.595-4.641,0.11c-1.037-0.372-1.816-1.123-2.326-2.235c-0.508-1.121-0.498-2.72,0.037-4.812l5.559,2.266
		l-0.088-1.65l-4.998-2.031c0.594-1.426,1.414-2.305,2.461-2.627c1.045-0.322,2.145-0.295,3.303,0.077
		c1.158,0.379,2.293,0.986,3.395,1.819c1.109,0.843,2.035,1.692,2.779,2.547c0.219-0.029,0.514-0.002,0.893,0.071
		C72.162,55.513,71.316,54.258,70.064,53.207z"/>
	<path fill="#fff" d="M47.699,55.64c-0.884-1.23-3.724-2.731-3.724-2.731s0.195-2.612,0.013-4.121
		c-0.044-0.357-0.104-0.656-0.194-0.842c-0.478-0.969-5.353-3.941-5.353-3.941l-0.948-0.179c0,0-4.893-5.539-6.311-6.845
		c-1.418-1.313-10.704-6.62-15.726-6.879l-2.36,0.267c0,0-0.026,0.094-0.046,0.236l-0.054,0.004
		c0.014,0.013,0.039,0.015,0.054,0.02c-0.037,0.407,0.082,1.221,1.396,1.772c1.811,0.752,8.413,3.849,12.675,8.729
		c0,0,1.182,1.734,1.271,3.227c0.004,0.099,0.02,0.188,0.024,0.29c-6.97-0.155-10.875,3.739-10.616,4.528
		c0.314,0.962,2.302,0.261,5.65,0.223c1.716-0.016,2.439,0.727,2.749,1.458c-0.81,0.392-1.593,0.81-2.373,1.252
		c-1.193,0.683-2.347,1.409-3.478,2.184c-0.559,0.376-1.131,0.735-1.677,1.133c-0.145,0.1-0.595,0.348-0.585,0.569
		c0,0.012,0,0.029,0.003,0.039c0.067,0.374,1.319,0.381,1.592,0.374c1.476-0.034,2.978-0.384,4.4-0.739
		c0.818-0.202,1.63-0.433,2.427-0.688c0.552-0.226,1.091-0.44,1.616-0.646c0.229,0.725,0.375,1.491,0.273,2.156
		c-0.221,1.501-1.594,2.623-2.904,3.082c-0.281,0.103-0.384,0.149-0.939,0.412c-0.385,0.192,0.246,0.591,0.971,0.622
		c1.045,0.043,4.62-0.519,5.825-1.35c-0.126,0.605-0.258,1.21-0.386,1.814c-0.059,0.265-0.6,1.729-0.081,1.571
		c0.223-0.073,0.941-0.841,1.069-0.976c1.265-1.382,2.399-2.888,3.528-4.384c0.315-0.43,0.633-0.863,0.946-1.289
		c0.985-0.028,1.934-0.123,2.691-0.2c-0.146,3.484-0.198,6.852,0.098,7.253c0.63,0.862,1.037-2.321,2.177-3.365
		c0.717-0.651,1.522-1.219,2.015-1.558c1.691,1.445,3.166-0.31,4.359-1.402C48.075,56.432,47.995,56.049,47.699,55.64z"/>
	<linearGradient id="SVGID_3_" gradientUnits="userSpaceOnUse" x1="-3.751" y1="10.4438" x2="61.839" y2="80.8332">
		<stop  offset="0" style="stop-color:#fff"/>
		<stop  offset="1" style="stop-color:#fff"/>
	</linearGradient>
	<path opacity="0.31" fill="url(#SVGID_3_)" d="M42.423,32.246c-4.602-10.203-4.888-18.427-3.954-24.213
		c-5.432,3.626-16.135,8.979-34.628,11.798c0.614,1.939,4.36,14.66,5.906,37.975c1.829,27.541,22.078,35.411,30.014,37.451
		c1.074-3.054,2.824-6.069,3.759-8.467C50.883,67.915,51.957,53.369,42.423,32.246z"/></g>
<g id="header-bg" transform="translate(900,0)" opacity="0.02">
	<linearGradient id="SVGID_1_00" gradientUnits="userSpaceOnUse" x1="0" y1="0" x2="100" y2="100">
		<stop  offset="0" style="stop-color:#000; stop-opacity:1"/>
		<stop  offset="1" style="stop-color:#000; stop-opacity:0"/>
	</linearGradient>
	<path fill="url(#SVGID_1_00)" d="M0,100h100V0C50,0,0,100,0,100z"/>
</g>
</svg>