<svg xmlns="http://www.w3.org/2000/svg" width="555" height="341" viewBox="0 0 555 341">
    <defs>
        <linearGradient id="prefix__a" x1="50.002%" x2="50.002%" y1="100%" y2="-.002%">
            <stop offset="0%" stop-color="gray" stop-opacity=".25"/>
            <stop offset="54%" stop-color="gray" stop-opacity=".12"/>
            <stop offset="100%" stop-color="gray" stop-opacity=".1"/>
        </linearGradient>
    </defs>
    <g fill="none" fill-rule="evenodd">
        <path d="M0 0H555V340H0z" transform="translate(0 .317)"/>
        <g transform="translate(0 .317) translate(79 32.5)">
            <ellipse cx="301.143" cy="256.536" fill="#F3F4F5" rx="81.718" ry="18"/>
            <path fill="#6395D8" fill-rule="nonzero" d="M257.786 238.536L35.196 238.536 35.196 99.491 63.662 99.491 75.374 113.958 257.786 113.958z"/>
            <path fill="#F3F4F5" fill-rule="nonzero" d="M101.647 54.938L208.178 54.938 208.178 220.78 101.647 220.78z" transform="rotate(-19.885 154.912 137.859)"/>
            <path fill="#FFF" fill-rule="nonzero" d="M95.846 83.173L125.946 83.173 125.946 90.255 95.846 90.255z" transform="rotate(-19.885 110.896 86.714)"/>
            <path fill="#FFF" fill-rule="nonzero" d="M106.42 93.855L172.547 93.855 172.547 100.349 106.42 100.349z" transform="rotate(-19.65 139.484 97.102)"/>
            <path fill="#FFF" fill-rule="nonzero" d="M111.087 106.924L177.214 106.924 177.214 113.418 111.087 113.418z" transform="rotate(-19.65 144.15 110.17)"/>
            <path fill="#FFF" fill-rule="nonzero" d="M115.75 119.993L181.877 119.993 181.877 126.486 115.75 126.486z" transform="rotate(-19.65 148.814 123.24)"/>
            <path fill="#FFF" fill-rule="nonzero" d="M120.417 133.057L186.544 133.057 186.544 139.551 120.417 139.551z" transform="rotate(-19.65 153.48 136.304)"/>
            <path fill="#FFF" fill-rule="nonzero" d="M125.083 146.122L191.21 146.122 191.21 152.615 125.083 152.615z" transform="rotate(-19.65 158.146 149.369)"/>
            <path fill="#FFF" fill-rule="nonzero" d="M129.75 159.191L195.877 159.191 195.877 165.684 129.75 165.684z" transform="rotate(-19.65 162.813 162.437)"/>
            <path fill="#FFF" fill-rule="nonzero" d="M191.245 172.327L208.365 172.327 208.365 189.448 191.245 189.448z" transform="rotate(-19.65 199.805 180.887)"/>
            <path fill="url(#prefix__a)" fill-rule="nonzero" d="M46.776 55.801L156.76 55.801 156.76 227.021 46.776 227.021z" transform="rotate(-59.28 101.768 141.41)"/>
            <path fill="#F3F4F5" fill-rule="nonzero" d="M48.483 58.458L155.056 58.458 155.056 224.366 48.483 224.366z" transform="rotate(-59.28 101.77 141.412)"/>
            <path fill="#FFF" fill-rule="nonzero" d="M20.111 126.283L50.223 126.283 50.223 133.367 20.111 133.367z" transform="rotate(-59.28 35.167 129.825)"/>
            <path fill="#FFF" fill-rule="nonzero" d="M30.306 115.52L96.433 115.52 96.433 122.014 30.306 122.014z" transform="rotate(-59.28 63.37 118.767)"/>
            <path fill="#FFF" fill-rule="nonzero" d="M42.235 122.61L108.362 122.61 108.362 129.103 42.235 129.103z" transform="rotate(-59.28 75.298 125.857)"/>
            <path fill="#FFF" fill-rule="nonzero" d="M54.093 129.496L120.21 129.496 120.21 135.988 54.093 135.988z" transform="rotate(-59.331 87.152 132.742)"/>
            <path fill="#FFF" fill-rule="nonzero" d="M66.088 136.783L132.215 136.783 132.215 143.277 66.088 143.277z" transform="rotate(-59.28 99.151 140.03)"/>
            <path fill="#FFF" fill-rule="nonzero" d="M78.016 143.873L144.143 143.873 144.143 150.366 78.016 150.366z" transform="rotate(-59.28 111.08 147.12)"/>
            <path fill="#FFF" fill-rule="nonzero" d="M89.949 150.963L156.076 150.963 156.076 157.456 89.949 157.456z" transform="rotate(-59.28 123.012 154.21)"/>
            <path fill="#FFF" fill-rule="nonzero" d="M154.574 136.025L171.692 136.025 171.692 153.143 154.574 153.143z" transform="rotate(-59.331 163.133 144.584)"/>
            <path fill="#FFC1C7" fill-rule="nonzero" d="M321.128 30.813l-11.125-7.527s-17.669-6.545-22.576 3.597c-4.908 10.143 21.262 4.908 21.262 4.908l11.125 6.217 1.314-7.195z"/>
            <path fill="#F3F4F5" fill-rule="nonzero" d="M245.064 6.775L351.637 6.775 351.637 172.683 245.064 172.683z" transform="rotate(-57.57 298.35 89.73)"/>
            <path fill="#FFF" fill-rule="nonzero" d="M217.067 72.617L247.179 72.617 247.179 79.702 217.067 79.702z" transform="rotate(-57.57 232.123 76.16)"/>
            <path fill="#FFF" fill-rule="nonzero" d="M227.582 62.703L293.709 62.703 293.709 69.197 227.582 69.197z" transform="rotate(-57.57 260.646 65.95)"/>
            <path fill="#FFF" fill-rule="nonzero" d="M239.294 70.143L305.421 70.143 305.421 76.636 239.294 76.636z" transform="rotate(-57.57 272.358 73.39)"/>
            <path fill="#FFF" fill-rule="nonzero" d="M251.006 77.584L317.133 77.584 317.133 84.078 251.006 84.078z" transform="rotate(-57.57 284.07 80.831)"/>
            <path fill="#FFF" fill-rule="nonzero" d="M263.583 87.026L329.618 87.026 329.618 93.511 263.583 93.511z" transform="rotate(-57.265 296.6 90.268)"/>
            <path fill="#FFF" fill-rule="nonzero" d="M274.429 92.466L340.556 92.466 340.556 98.959 274.429 98.959z" transform="rotate(-57.57 307.493 95.712)"/>
            <path fill="#FFF" fill-rule="nonzero" d="M287.034 102.058L353.068 102.058 353.068 108.542 287.034 108.542z" transform="rotate(-57.265 320.051 105.3)"/>
            <path fill="#FFF" fill-rule="nonzero" d="M351.165 86.408L368.286 86.408 368.286 103.529 351.165 103.529z" transform="rotate(-57.57 359.725 94.968)"/>
            <path fill="#727F8E" fill-rule="nonzero" d="M354.038 260.207c-5.366-1.31-13.646-3.223-17.86-3.644-6.545-.655-6.545-8.833-1.965-7.85 2.484.531 4.678-.85 6.17-2.25.457-.435.885-.9 1.28-1.39.546-.653 1.295-1.102 2.127-1.276 2.453-.536 7.56-1.344 10.703.349.728.448 1.317 1.09 1.701 1.854 1.412 2.504 2.127 6.736 2.514 10.142.127 1.225-.35 2.436-1.28 3.245-.929.809-2.193 1.115-3.39.82zM271.263 263.482c-5.367-1.31-13.647-3.224-17.861-3.645-6.545-.655-6.545-8.832-1.965-7.85 2.977.647 5.575-1.522 7-3.087.174-.192.332-.374.468-.544.545-.653 1.294-1.102 2.126-1.276 2.454-.536 7.561-1.344 10.704.348.918.498 1.654 1.587 2.24 2.977 1.06 2.526 1.642 6.073 1.965 9.003.131 1.229-.346 2.444-1.277 3.255-.932.812-2.201 1.117-3.4.819z"/>
            <path fill="#000" fill-rule="nonzero" d="M273.963 250.397c-7.812 8.05-14.51-.15-15.526-1.501.174-.192.332-.375.468-.545.545-.652 1.294-1.101 2.126-1.275 2.454-.536 7.561-1.344 10.704.348.906.477 1.641 1.565 2.228 2.973zM356.19 245.987c-3.402 2.313-14.777 1.743-14.777 1.743-.374-.4-.718-.826-1.03-1.275.457-.433.884-.894 1.28-1.382.546-.653 1.295-1.102 2.127-1.276 2.453-.536 7.56-1.344 10.703.349.725.446 1.312 1.083 1.697 1.84z" opacity=".1"/>
            <path fill="#142B43" fill-rule="nonzero" d="M356.79 244.46c-2.292 2.943-15.377 2.292-15.377 2.292s-3.926-3.925-5.563-12.434c-1.637-8.51-15.704-35.662-15.704-35.662-3.27-4.252-5.89-12.107-5.89-12.107l-5.562-35.662s-26.83 35.335-26.502 42.862c.327 7.527-5.89 37.29-5.89 37.29-2.292 3.925-2.292 18.32-2.292 18.32-8.505 8.833-15.705-1.637-15.705-1.637-1.637-6.872.983-29.445.983-29.445s3.925-18.975 4.252-30.754c.328-11.78 4.253-14.722 4.253-14.722 3.056-12.14 8.26-23.634 15.364-33.94 1.977-2.832 3.283-4.342 3.283-4.342l53.004 6.218c-.85 1.7-1.612 4.137-2.28 7.02-3.444 14.804-4.588 41.403-4.588 41.403 12.107 7.859 15.704 29.122 15.704 29.122 0 5.562 8.51 26.178 8.51 26.178z"/>
            <g fill="#000" fill-rule="nonzero" opacity=".05">
                <path d="M40.646 20.735l-.68-4.358s-26.83 35.334-26.502 42.86c.327 7.528-5.886 37.296-5.886 37.296-2.292 3.925-2.292 18.32-2.292 18.32-1.782 1.85-3.508 2.853-5.103 3.283 2.577.676 5.711.182 9.05-3.283 0 0 0-14.395 2.291-18.32 0 0 6.218-29.768 5.89-37.3-.276-5.885 16.105-28.81 23.232-38.498z" transform="translate(265.126 134.507)"/>
                <path d="M83.482 83.775s-3.598-21.263-15.705-29.117c0 0 1.144-26.595 4.588-41.403.672-2.883 1.425-5.316 2.28-7.02L21.645 0s-.123.145-.348.425l49.427 5.796c-.85 1.701-1.612 4.138-2.28 7.021C65 28.046 63.857 54.645 63.857 54.645c12.103 7.867 15.7 29.13 15.7 29.13 0 5.562 8.506 26.174 8.506 26.174-1.348 1.735-6.452 2.22-10.415 2.327 3.143.08 12.443.11 14.34-2.327.004.005-8.505-20.612-8.505-26.174z" transform="translate(265.126 134.507)"/>
            </g>
            <path fill="#FFC1C7" fill-rule="nonzero" d="M276.63 129.948c-.396.967-.918 1.878-1.553 2.709-1.969 2.649-6.06 6.157-13.553 5.196-1.12-.145-2.083-.867-2.536-1.902-.452-1.036-.33-2.233.325-3.154 1.922-2.68 5.103-5.992 9.866-7.561 1.353-.45 2.755-.736 4.176-.85l3.274 5.562z"/>
            <path fill="#0057CC" fill-rule="nonzero" d="M345.725 38.446l-26.239-9.598s-7.527 3.925-4.58 9.487l25.516 16.032 5.303-15.921z"/>
            <path fill="#FFC1C7" fill-rule="nonzero" d="M346.647 22.63s-.327 15.378 6.545 20.613c6.872 5.235-19.957 8.177-19.957 8.177s4.252-15.704 0-23.882c-4.253-8.177 13.412-4.907 13.412-4.907z"/>
            <path fill="#000" fill-rule="nonzero" d="M339.448 140.74c-.85 1.702-1.612 4.138-2.28 7.022-31.643 4.83-53.667-8.331-53.667-8.331-.119-.191-.233-.379-.34-.566 1.978-2.832 3.283-4.341 3.283-4.341l53.004 6.217zM276.63 129.948c-.396.967-.918 1.878-1.553 2.709-3.028-.502-5.452-6.294-5.898-7.425 1.353-.45 2.755-.736 4.176-.85l3.274 5.566z" opacity=".1"/>
            <path fill="#006DFF" fill-rule="nonzero" d="M349.263 36.37l-11.78 4.253-4.907 6.545s-10.143 3.27-11.452 3.27c-1.31 0-4.908 1.31-7.2 6.545-2.292 5.235-10.465 30.746-17.665 34.998-7.2 4.253-26.174 32.745-26.174 32.745s3.27 8.832 7.2 7.527l9.16-7.527s-7.2 7.2-2.944 13.74c0 0 26.83 16.032 63.789 6.217l.327-9.815 1.637 7.85 18.35-11.465s-1.642-21.118-4.597-31.868c-1.221-4.52-.768-9.328 1.276-13.54 4.75-9.9 12.081-26.434 11.188-32.464-1.054-7.106-5.069-10.206-6.6-11.125-.35-.212-.744-.343-1.152-.383l-5.988-.6-12.468-4.902z"/>
            <path fill="#000" fill-rule="nonzero" d="M329.14 69.256s-6.545 30.426-13.74 35.334c-7.196 4.907-26.502 20.612-27.157 23.232" opacity=".3"/>
            <path fill="#006DFF" fill-rule="nonzero" d="M326.197 68.273s-6.545 30.427-13.74 35.335c-7.195 4.907-26.502 20.612-27.157 23.244"/>
            <path fill="#000" fill-rule="nonzero" d="M332.414 47.006s22.577-7.527 29.117-5.562" opacity=".3"/>
            <g fill="#000" fill-rule="nonzero" opacity=".05">
                <path d="M16.198 49.576c4.75-9.9 12.081-26.434 11.188-32.464-1.054-7.106-5.069-10.206-6.6-11.124-.35-.213-.744-.344-1.152-.383l-2.552-.255c.267.064.522.169.757.31 1.531.936 5.529 4.019 6.6 11.125.893 6.026-6.438 22.564-11.188 32.464-2.044 4.212-2.497 9.02-1.276 13.54 2.977 10.75 4.597 31.868 4.597 31.868L.795 104.52l.4 1.918L19.553 94.98s-1.641-21.118-4.597-31.868c-1.23-4.514-.79-9.32 1.242-13.536zM10.699 4.682L13.536 4.963 1.212.098.106.498z" transform="translate(348.05 36.273)"/>
            </g>
            <path fill="#000" fill-rule="nonzero" d="M326.197 100.01s10.142-5.562 13.413-4.253c3.27 1.31 15.377-.327 15.377-.327" opacity=".3"/>
            <path fill="#000" fill-rule="nonzero" d="M345.49 26.722c-.373-3.28 1.145-2.782 1.145-2.782s-17.67-3.27-13.413 4.908c1.063 2.05 1.595 4.567 1.795 7.195h.166c4.941.004 7.803-5.486 10.308-9.321z" opacity=".05"/>
            <circle cx="335.195" cy="20.666" r="14.067" fill="#FFC1C7" fill-rule="nonzero"/>
            <path fill="#000" fill-rule="nonzero" d="M350.547 24.83c1.276-2.799 2.211-5.835 2.054-8.931-.157-3.096-1.53-6.196-4.082-7.914-1.319-.889-2.875-1.365-4.253-2.173-1.067-.634-2.011-1.454-3.028-2.169-5.075-3.45-11.608-3.925-17.129-1.246-2.581 1.276-4.784 3.228-7.23 4.776-2.445 1.548-5.306 2.743-8.16 2.283-.489 1.361.714 2.705 1.824 3.636 2.105 1.765 4.491 3.526 7.23 3.585 1.063.026 2.181-.204 3.147.243.65.357 1.202.87 1.607 1.492 1.322 1.755 2.442 3.654 3.338 5.66.366.821.74 1.701 1.497 2.199 1.276.808 2.905.136 4.402.076 2.33-.089 4.422 1.374 6.149 2.947 1.726 1.574 3.364 3.36 5.528 4.19 1.625.616 4.873.595 5.703-1.349.31-.731-.285-2.3-.162-3.198.23-1.416.97-2.802 1.565-4.108z" opacity=".1"/>
            <path fill="#142B43" fill-rule="nonzero" d="M350.874 24.502c1.276-2.798 2.212-5.835 2.054-8.93-.157-3.096-1.53-6.196-4.082-7.914-1.318-.89-2.875-1.366-4.253-2.174-1.067-.633-2.011-1.454-3.027-2.168-5.076-3.45-11.608-3.926-17.13-1.246-2.58 1.275-4.784 3.227-7.229 4.775-2.445 1.548-5.307 2.743-8.16 2.284-.49 1.36.714 2.705 1.824 3.636 2.105 1.765 4.49 3.525 7.23 3.585 1.062.025 2.18-.204 3.146.242.65.358 1.202.87 1.607 1.493 1.322 1.755 2.442 3.654 3.339 5.66.365.82.74 1.7 1.497 2.198 1.275.808 2.904.137 4.401.077 2.33-.09 4.423 1.374 6.15 2.947 1.726 1.573 3.363 3.36 5.527 4.189 1.625.616 4.874.595 5.703-1.348.31-.732-.285-2.3-.161-3.198.23-1.412.97-2.803 1.564-4.108z"/>
            <path fill="#99C4FF" fill-rule="nonzero" d="M257.786 244.439L35.196 244.439 35.196 105.394 63.662 105.394 75.374 119.861 257.786 119.861z"/>
            <path fill="#000" fill-rule="nonzero" d="M119.681 170.662H169.01V179.167H119.681z" opacity=".1"/>
        </g>
    </g>
</svg>
